ISO-10303-21;
HEADER;
/* Generated by software containing ST-Developer
 * from STEP Tools, Inc. (www.steptools.com) 
 */

FILE_DESCRIPTION(
/* description */ (''),
/* implementation_level */ '2;1');

FILE_NAME(
/* name */ 'Support.step',
/* time_stamp */ '2025-07-31T17:27:42-05:00',
/* author */ (''),
/* organization */ (''),
/* preprocessor_version */ 'ST-DEVELOPER v20.1',
/* originating_system */ 'Autodesk Translation Framework v14.10.0.0',
/* authorisation */ '');

FILE_SCHEMA (('AUTOMOTIVE_DESIGN { 1 0 10303 214 3 1 1 }'));
ENDSEC;

DATA;
#10=MECHANICAL_DESIGN_GEOMETRIC_PRESENTATION_REPRESENTATION('',(#13),#171);
#11=SHAPE_REPRESENTATION_RELATIONSHIP('SRR','None',#177,#12);
#12=ADVANCED_BREP_SHAPE_REPRESENTATION('',(#14),#170);
#13=STYLED_ITEM('',(#204),#14);
#14=MANIFOLD_SOLID_BREP('Body27',#107);
#15=FACE_OUTER_BOUND('',#21,.T.);
#16=FACE_OUTER_BOUND('',#22,.T.);
#17=FACE_OUTER_BOUND('',#23,.T.);
#18=FACE_OUTER_BOUND('',#24,.T.);
#19=FACE_OUTER_BOUND('',#25,.T.);
#20=FACE_OUTER_BOUND('',#26,.T.);
#21=EDGE_LOOP('',(#71,#72,#73,#74));
#22=EDGE_LOOP('',(#75,#76,#77,#78));
#23=EDGE_LOOP('',(#79,#80,#81,#82));
#24=EDGE_LOOP('',(#83,#84,#85,#86));
#25=EDGE_LOOP('',(#87,#88,#89,#90));
#26=EDGE_LOOP('',(#91,#92,#93,#94));
#27=LINE('',#145,#39);
#28=LINE('',#147,#40);
#29=LINE('',#149,#41);
#30=LINE('',#150,#42);
#31=LINE('',#153,#43);
#32=LINE('',#155,#44);
#33=LINE('',#156,#45);
#34=LINE('',#159,#46);
#35=LINE('',#160,#47);
#36=LINE('',#163,#48);
#37=LINE('',#164,#49);
#38=LINE('',#166,#50);
#39=VECTOR('',#119,10.);
#40=VECTOR('',#120,10.);
#41=VECTOR('',#121,10.);
#42=VECTOR('',#122,10.);
#43=VECTOR('',#125,10.);
#44=VECTOR('',#126,10.);
#45=VECTOR('',#127,10.);
#46=VECTOR('',#130,10.);
#47=VECTOR('',#131,10.);
#48=VECTOR('',#134,10.);
#49=VECTOR('',#135,10.);
#50=VECTOR('',#138,10.);
#51=VERTEX_POINT('',#143);
#52=VERTEX_POINT('',#144);
#53=VERTEX_POINT('',#146);
#54=VERTEX_POINT('',#148);
#55=VERTEX_POINT('',#152);
#56=VERTEX_POINT('',#154);
#57=VERTEX_POINT('',#158);
#58=VERTEX_POINT('',#162);
#59=EDGE_CURVE('',#51,#52,#27,.T.);
#60=EDGE_CURVE('',#52,#53,#28,.T.);
#61=EDGE_CURVE('',#53,#54,#29,.T.);
#62=EDGE_CURVE('',#54,#51,#30,.T.);
#63=EDGE_CURVE('',#55,#52,#31,.T.);
#64=EDGE_CURVE('',#56,#55,#32,.T.);
#65=EDGE_CURVE('',#53,#56,#33,.T.);
#66=EDGE_CURVE('',#57,#56,#34,.T.);
#67=EDGE_CURVE('',#54,#57,#35,.T.);
#68=EDGE_CURVE('',#58,#57,#36,.T.);
#69=EDGE_CURVE('',#51,#58,#37,.T.);
#70=EDGE_CURVE('',#55,#58,#38,.T.);
#71=ORIENTED_EDGE('',*,*,#59,.T.);
#72=ORIENTED_EDGE('',*,*,#60,.T.);
#73=ORIENTED_EDGE('',*,*,#61,.T.);
#74=ORIENTED_EDGE('',*,*,#62,.T.);
#75=ORIENTED_EDGE('',*,*,#63,.F.);
#76=ORIENTED_EDGE('',*,*,#64,.F.);
#77=ORIENTED_EDGE('',*,*,#65,.F.);
#78=ORIENTED_EDGE('',*,*,#60,.F.);
#79=ORIENTED_EDGE('',*,*,#65,.T.);
#80=ORIENTED_EDGE('',*,*,#66,.F.);
#81=ORIENTED_EDGE('',*,*,#67,.F.);
#82=ORIENTED_EDGE('',*,*,#61,.F.);
#83=ORIENTED_EDGE('',*,*,#67,.T.);
#84=ORIENTED_EDGE('',*,*,#68,.F.);
#85=ORIENTED_EDGE('',*,*,#69,.F.);
#86=ORIENTED_EDGE('',*,*,#62,.F.);
#87=ORIENTED_EDGE('',*,*,#69,.T.);
#88=ORIENTED_EDGE('',*,*,#70,.F.);
#89=ORIENTED_EDGE('',*,*,#63,.T.);
#90=ORIENTED_EDGE('',*,*,#59,.F.);
#91=ORIENTED_EDGE('',*,*,#70,.T.);
#92=ORIENTED_EDGE('',*,*,#68,.T.);
#93=ORIENTED_EDGE('',*,*,#66,.T.);
#94=ORIENTED_EDGE('',*,*,#64,.T.);
#95=PLANE('',#109);
#96=PLANE('',#110);
#97=PLANE('',#111);
#98=PLANE('',#112);
#99=PLANE('',#113);
#100=PLANE('',#114);
#101=ADVANCED_FACE('',(#15),#95,.T.);
#102=ADVANCED_FACE('',(#16),#96,.T.);
#103=ADVANCED_FACE('',(#17),#97,.T.);
#104=ADVANCED_FACE('',(#18),#98,.T.);
#105=ADVANCED_FACE('',(#19),#99,.T.);
#106=ADVANCED_FACE('',(#20),#100,.T.);
#107=CLOSED_SHELL('',(#101,#102,#103,#104,#105,#106));
#108=AXIS2_PLACEMENT_3D('',#141,#115,#116);
#109=AXIS2_PLACEMENT_3D('',#142,#117,#118);
#110=AXIS2_PLACEMENT_3D('',#151,#123,#124);
#111=AXIS2_PLACEMENT_3D('',#157,#128,#129);
#112=AXIS2_PLACEMENT_3D('',#161,#132,#133);
#113=AXIS2_PLACEMENT_3D('',#165,#136,#137);
#114=AXIS2_PLACEMENT_3D('',#167,#139,#140);
#115=DIRECTION('axis',(0.,0.,1.));
#116=DIRECTION('refdir',(1.,0.,0.));
#117=DIRECTION('center_axis',(-1.,0.,0.));
#118=DIRECTION('ref_axis',(0.,0.,1.));
#119=DIRECTION('',(0.,0.,1.));
#120=DIRECTION('',(0.,1.,0.));
#121=DIRECTION('',(0.,0.,-1.));
#122=DIRECTION('',(0.,-1.,0.));
#123=DIRECTION('center_axis',(0.,0.,1.));
#124=DIRECTION('ref_axis',(0.,-1.,0.));
#125=DIRECTION('',(-1.,0.,0.));
#126=DIRECTION('',(0.,-1.,0.));
#127=DIRECTION('',(1.,0.,0.));
#128=DIRECTION('center_axis',(0.,1.,0.));
#129=DIRECTION('ref_axis',(0.,0.,1.));
#130=DIRECTION('',(0.,0.,1.));
#131=DIRECTION('',(1.,0.,0.));
#132=DIRECTION('center_axis',(0.,0.,-1.));
#133=DIRECTION('ref_axis',(0.,1.,0.));
#134=DIRECTION('',(0.,1.,0.));
#135=DIRECTION('',(1.,0.,0.));
#136=DIRECTION('center_axis',(0.,-1.,0.));
#137=DIRECTION('ref_axis',(0.,0.,-1.));
#138=DIRECTION('',(0.,0.,-1.));
#139=DIRECTION('center_axis',(1.,0.,0.));
#140=DIRECTION('ref_axis',(0.,0.,-1.));
#141=CARTESIAN_POINT('',(0.,0.,0.));
#142=CARTESIAN_POINT('Origin',(64.9332057128986,122.10990214745,55.0000000149013));
#143=CARTESIAN_POINT('',(64.9332057128986,109.23490214745,12.0000000149013));
#144=CARTESIAN_POINT('',(64.9332057128986,109.23490214745,98.0000000149013));
#145=CARTESIAN_POINT('',(64.9332057128986,109.23490214745,98.0000000149013));
#146=CARTESIAN_POINT('',(64.9332057128986,134.98490214745,98.0000000149013));
#147=CARTESIAN_POINT('',(64.9332057128986,134.98490214745,98.0000000149013));
#148=CARTESIAN_POINT('',(64.9332057128986,134.98490214745,12.0000000149013));
#149=CARTESIAN_POINT('',(64.9332057128986,134.98490214745,12.0000000149013));
#150=CARTESIAN_POINT('',(64.9332057128986,109.23490214745,12.0000000149013));
#151=CARTESIAN_POINT('Origin',(84.9332057128986,134.98490214745,98.0000000149013));
#152=CARTESIAN_POINT('',(94.9332057128986,109.23490214745,98.0000000149013));
#153=CARTESIAN_POINT('',(84.9332057128986,109.23490214745,98.0000000149013));
#154=CARTESIAN_POINT('',(94.9332057128986,134.98490214745,98.0000000149013));
#155=CARTESIAN_POINT('',(94.9332057128986,134.98490214745,98.0000000149013));
#156=CARTESIAN_POINT('',(84.9332057128986,134.98490214745,98.0000000149013));
#157=CARTESIAN_POINT('Origin',(84.9332057128986,134.98490214745,12.0000000149013));
#158=CARTESIAN_POINT('',(94.9332057128986,134.98490214745,12.0000000149013));
#159=CARTESIAN_POINT('',(94.9332057128986,134.98490214745,12.0000000149013));
#160=CARTESIAN_POINT('',(84.9332057128986,134.98490214745,12.0000000149013));
#161=CARTESIAN_POINT('Origin',(84.9332057128986,109.23490214745,12.0000000149013));
#162=CARTESIAN_POINT('',(94.9332057128986,109.23490214745,12.0000000149013));
#163=CARTESIAN_POINT('',(94.9332057128986,109.23490214745,12.0000000149013));
#164=CARTESIAN_POINT('',(84.9332057128986,109.23490214745,12.0000000149013));
#165=CARTESIAN_POINT('Origin',(84.9332057128986,109.23490214745,98.0000000149013));
#166=CARTESIAN_POINT('',(94.9332057128986,109.23490214745,98.0000000149013));
#167=CARTESIAN_POINT('Origin',(94.9332057128986,122.10990214745,55.0000000149013));
#168=UNCERTAINTY_MEASURE_WITH_UNIT(LENGTH_MEASURE(0.01),#172,
'DISTANCE_ACCURACY_VALUE',
'Maximum model space distance between geometric entities at asserted c
onnectivities');
#169=UNCERTAINTY_MEASURE_WITH_UNIT(LENGTH_MEASURE(0.01),#172,
'DISTANCE_ACCURACY_VALUE',
'Maximum model space distance between geometric entities at asserted c
onnectivities');
#170=(
GEOMETRIC_REPRESENTATION_CONTEXT(3)
GLOBAL_UNCERTAINTY_ASSIGNED_CONTEXT((#168))
GLOBAL_UNIT_ASSIGNED_CONTEXT((#172,#173,#174))
REPRESENTATION_CONTEXT('','3D')
);
#171=(
GEOMETRIC_REPRESENTATION_CONTEXT(3)
GLOBAL_UNCERTAINTY_ASSIGNED_CONTEXT((#169))
GLOBAL_UNIT_ASSIGNED_CONTEXT((#172,#173,#174))
REPRESENTATION_CONTEXT('','3D')
);
#172=(
LENGTH_UNIT()
NAMED_UNIT(*)
SI_UNIT(.MILLI.,.METRE.)
);
#173=(
NAMED_UNIT(*)
PLANE_ANGLE_UNIT()
SI_UNIT($,.RADIAN.)
);
#174=(
NAMED_UNIT(*)
SI_UNIT($,.STERADIAN.)
SOLID_ANGLE_UNIT()
);
#175=SHAPE_DEFINITION_REPRESENTATION(#176,#177);
#176=PRODUCT_DEFINITION_SHAPE('',$,#179);
#177=SHAPE_REPRESENTATION('',(#108),#170);
#178=PRODUCT_DEFINITION_CONTEXT('part definition',#183,'design');
#179=PRODUCT_DEFINITION('Jukebox','Jukebox v18',#180,#178);
#180=PRODUCT_DEFINITION_FORMATION('',$,#185);
#181=PRODUCT_RELATED_PRODUCT_CATEGORY('Jukebox v18','Jukebox v18',(#185));
#182=APPLICATION_PROTOCOL_DEFINITION('international standard',
'automotive_design',2009,#183);
#183=APPLICATION_CONTEXT(
'Core Data for Automotive Mechanical Design Process');
#184=PRODUCT_CONTEXT('part definition',#183,'mechanical');
#185=PRODUCT('Jukebox','Jukebox v18',$,(#184));
#186=PRESENTATION_STYLE_ASSIGNMENT((#205));
#187=PRESENTATION_STYLE_ASSIGNMENT((#206));
#188=PRESENTATION_STYLE_ASSIGNMENT((#207));
#189=PRESENTATION_STYLE_ASSIGNMENT((#208));
#190=PRESENTATION_STYLE_ASSIGNMENT((#209));
#191=PRESENTATION_STYLE_ASSIGNMENT((#210));
#192=PRESENTATION_STYLE_ASSIGNMENT((#211));
#193=PRESENTATION_STYLE_ASSIGNMENT((#212));
#194=PRESENTATION_STYLE_ASSIGNMENT((#213));
#195=PRESENTATION_STYLE_ASSIGNMENT((#214));
#196=PRESENTATION_STYLE_ASSIGNMENT((#215));
#197=PRESENTATION_STYLE_ASSIGNMENT((#216));
#198=PRESENTATION_STYLE_ASSIGNMENT((#217));
#199=PRESENTATION_STYLE_ASSIGNMENT((#218));
#200=PRESENTATION_STYLE_ASSIGNMENT((#219));
#201=PRESENTATION_STYLE_ASSIGNMENT((#220));
#202=PRESENTATION_STYLE_ASSIGNMENT((#221));
#203=PRESENTATION_STYLE_ASSIGNMENT((#222));
#204=PRESENTATION_STYLE_ASSIGNMENT((#223));
#205=SURFACE_STYLE_USAGE(.BOTH.,#224);
#206=SURFACE_STYLE_USAGE(.BOTH.,#225);
#207=SURFACE_STYLE_USAGE(.BOTH.,#226);
#208=SURFACE_STYLE_USAGE(.BOTH.,#227);
#209=SURFACE_STYLE_USAGE(.BOTH.,#228);
#210=SURFACE_STYLE_USAGE(.BOTH.,#229);
#211=SURFACE_STYLE_USAGE(.BOTH.,#230);
#212=SURFACE_STYLE_USAGE(.BOTH.,#231);
#213=SURFACE_STYLE_USAGE(.BOTH.,#232);
#214=SURFACE_STYLE_USAGE(.BOTH.,#233);
#215=SURFACE_STYLE_USAGE(.BOTH.,#234);
#216=SURFACE_STYLE_USAGE(.BOTH.,#235);
#217=SURFACE_STYLE_USAGE(.BOTH.,#236);
#218=SURFACE_STYLE_USAGE(.BOTH.,#237);
#219=SURFACE_STYLE_USAGE(.BOTH.,#238);
#220=SURFACE_STYLE_USAGE(.BOTH.,#239);
#221=SURFACE_STYLE_USAGE(.BOTH.,#240);
#222=SURFACE_STYLE_USAGE(.BOTH.,#241);
#223=SURFACE_STYLE_USAGE(.BOTH.,#242);
#224=SURFACE_SIDE_STYLE('',(#243));
#225=SURFACE_SIDE_STYLE('',(#244));
#226=SURFACE_SIDE_STYLE('',(#245));
#227=SURFACE_SIDE_STYLE('',(#246));
#228=SURFACE_SIDE_STYLE('',(#247));
#229=SURFACE_SIDE_STYLE('',(#248));
#230=SURFACE_SIDE_STYLE('',(#249));
#231=SURFACE_SIDE_STYLE('',(#250));
#232=SURFACE_SIDE_STYLE('',(#251));
#233=SURFACE_SIDE_STYLE('',(#252));
#234=SURFACE_SIDE_STYLE('',(#253));
#235=SURFACE_SIDE_STYLE('',(#254));
#236=SURFACE_SIDE_STYLE('',(#255));
#237=SURFACE_SIDE_STYLE('',(#256));
#238=SURFACE_SIDE_STYLE('',(#257));
#239=SURFACE_SIDE_STYLE('',(#258));
#240=SURFACE_SIDE_STYLE('',(#259));
#241=SURFACE_SIDE_STYLE('',(#260));
#242=SURFACE_SIDE_STYLE('',(#261));
#243=SURFACE_STYLE_FILL_AREA(#262);
#244=SURFACE_STYLE_FILL_AREA(#263);
#245=SURFACE_STYLE_FILL_AREA(#264);
#246=SURFACE_STYLE_FILL_AREA(#265);
#247=SURFACE_STYLE_FILL_AREA(#266);
#248=SURFACE_STYLE_FILL_AREA(#267);
#249=SURFACE_STYLE_FILL_AREA(#268);
#250=SURFACE_STYLE_FILL_AREA(#269);
#251=SURFACE_STYLE_FILL_AREA(#270);
#252=SURFACE_STYLE_FILL_AREA(#271);
#253=SURFACE_STYLE_FILL_AREA(#272);
#254=SURFACE_STYLE_FILL_AREA(#273);
#255=SURFACE_STYLE_FILL_AREA(#274);
#256=SURFACE_STYLE_FILL_AREA(#275);
#257=SURFACE_STYLE_FILL_AREA(#276);
#258=SURFACE_STYLE_FILL_AREA(#277);
#259=SURFACE_STYLE_FILL_AREA(#278);
#260=SURFACE_STYLE_FILL_AREA(#279);
#261=SURFACE_STYLE_FILL_AREA(#280);
#262=FILL_AREA_STYLE('Opaque(203,203,203)',(#281));
#263=FILL_AREA_STYLE('Opaque(25,25,25)',(#282));
#264=FILL_AREA_STYLE('Opaque(63,63,63)',(#283));
#265=FILL_AREA_STYLE('Opaque(237,237,237)',(#284));
#266=FILL_AREA_STYLE('Opaque(160,160,160)',(#285));
#267=FILL_AREA_STYLE('Opaque(89,149,218)',(#286));
#268=FILL_AREA_STYLE('Opaque(246,246,243)',(#287));
#269=FILL_AREA_STYLE('Opaque(237,206,195)',(#288));
#270=FILL_AREA_STYLE('Opaque(229,202,158)',(#289));
#271=FILL_AREA_STYLE('Opaque(245,245,246)',(#290));
#272=FILL_AREA_STYLE('Opaque(0,192,0)',(#291));
#273=FILL_AREA_STYLE('Opaque(64,64,64)',(#292));
#274=FILL_AREA_STYLE('Opaque(229,229,229)',(#293));
#275=FILL_AREA_STYLE('Opaque(137,89,86)',(#294));
#276=FILL_AREA_STYLE('Opaque(165,158,150)',(#295));
#277=FILL_AREA_STYLE('Opaque(192,192,192)',(#296));
#278=FILL_AREA_STYLE('Opaque(219,219,219)',(#297));
#279=FILL_AREA_STYLE('Opaque(202,209,238)',(#298));
#280=FILL_AREA_STYLE('Steel - Satin',(#299));
#281=FILL_AREA_STYLE_COLOUR('Opaque(203,203,203)',#300);
#282=FILL_AREA_STYLE_COLOUR('Opaque(25,25,25)',#301);
#283=FILL_AREA_STYLE_COLOUR('Opaque(63,63,63)',#302);
#284=FILL_AREA_STYLE_COLOUR('Opaque(237,237,237)',#303);
#285=FILL_AREA_STYLE_COLOUR('Opaque(160,160,160)',#304);
#286=FILL_AREA_STYLE_COLOUR('Opaque(89,149,218)',#305);
#287=FILL_AREA_STYLE_COLOUR('Opaque(246,246,243)',#306);
#288=FILL_AREA_STYLE_COLOUR('Opaque(237,206,195)',#307);
#289=FILL_AREA_STYLE_COLOUR('Opaque(229,202,158)',#308);
#290=FILL_AREA_STYLE_COLOUR('Opaque(245,245,246)',#309);
#291=FILL_AREA_STYLE_COLOUR('Opaque(0,192,0)',#310);
#292=FILL_AREA_STYLE_COLOUR('Opaque(64,64,64)',#311);
#293=FILL_AREA_STYLE_COLOUR('Opaque(229,229,229)',#312);
#294=FILL_AREA_STYLE_COLOUR('Opaque(137,89,86)',#313);
#295=FILL_AREA_STYLE_COLOUR('Opaque(165,158,150)',#314);
#296=FILL_AREA_STYLE_COLOUR('Opaque(192,192,192)',#315);
#297=FILL_AREA_STYLE_COLOUR('Opaque(219,219,219)',#316);
#298=FILL_AREA_STYLE_COLOUR('Opaque(202,209,238)',#317);
#299=FILL_AREA_STYLE_COLOUR('Steel - Satin',#318);
#300=COLOUR_RGB('Opaque(203,203,203)',0.796078431372549,0.796078431372549,
0.796078431372549);
#301=COLOUR_RGB('Opaque(25,25,25)',0.0980392156862745,0.0980392156862745,
0.0980392156862745);
#302=COLOUR_RGB('Opaque(63,63,63)',0.250980392156863,0.250980392156863,
0.250980392156863);
#303=COLOUR_RGB('Opaque(237,237,237)',0.929411764705882,0.929411764705882,
0.929411764705882);
#304=COLOUR_RGB('Opaque(160,160,160)',0.627450980392157,0.627450980392157,
0.627450980392157);
#305=COLOUR_RGB('Opaque(89,149,218)',0.349019607843137,0.584313725490196,
0.854901960784314);
#306=COLOUR_RGB('Opaque(246,246,243)',0.964705882352941,0.964705882352941,
0.952941176470588);
#307=COLOUR_RGB('Opaque(237,206,195)',0.929411764705882,0.807843137254902,
0.764705882352941);
#308=COLOUR_RGB('Opaque(229,202,158)',0.898039215686275,0.792156862745098,
0.619607843137255);
#309=COLOUR_RGB('Opaque(245,245,246)',0.96078431372549,0.96078431372549,
0.964705882352941);
#310=COLOUR_RGB('Opaque(0,192,0)',0.,0.752941176470588,0.);
#311=COLOUR_RGB('Opaque(64,64,64)',0.250980392156863,0.250980392156863,
0.250980392156863);
#312=COLOUR_RGB('Opaque(229,229,229)',0.898039215686275,0.898039215686275,
0.898039215686275);
#313=COLOUR_RGB('Opaque(137,89,86)',0.537254901960784,0.349019607843137,
0.337254901960784);
#314=COLOUR_RGB('Opaque(165,158,150)',0.647058823529412,0.619607843137255,
0.588235294117647);
#315=COLOUR_RGB('Opaque(192,192,192)',0.752941176470588,0.752941176470588,
0.752941176470588);
#316=COLOUR_RGB('Opaque(219,219,219)',0.858823529411765,0.858823529411765,
0.858823529411765);
#317=COLOUR_RGB('Opaque(202,209,238)',0.792156862745098,0.819607843137255,
0.933333333333333);
#318=COLOUR_RGB('Steel - Satin',0.627450980392157,0.627450980392157,0.627450980392157);
ENDSEC;
END-ISO-10303-21;
