ISO-10303-21;
HEADER;
/* Generated by software containing ST-Developer
 * from STEP Tools, Inc. (www.steptools.com) 
 */

FILE_DESCRIPTION(
/* description */ (''),
/* implementation_level */ '2;1');

FILE_NAME(
/* name */ 'Jukebox Top.step',
/* time_stamp */ '2025-07-31T17:28:43-05:00',
/* author */ (''),
/* organization */ (''),
/* preprocessor_version */ 'ST-DEVELOPER v20.1',
/* originating_system */ 'Autodesk Translation Framework v14.10.0.0',
/* authorisation */ '');

FILE_SCHEMA (('AUTOMOTIVE_DESIGN { 1 0 10303 214 3 1 1 }'));
ENDSEC;

DATA;
#10=MECHANICAL_DESIGN_GEOMETRIC_PRESENTATION_REPRESENTATION('',(#13),#1295);
#11=SHAPE_REPRESENTATION_RELATIONSHIP('SRR','None',#1301,#12);
#12=ADVANCED_BREP_SHAPE_REPRESENTATION('',(#14),#1294);
#13=STYLED_ITEM('',(#1328),#14);
#14=MANIFOLD_SOLID_BREP('Body18',#789);
#15=CYLINDRICAL_SURFACE('',#806,0.500000000000007);
#16=CYLINDRICAL_SURFACE('',#809,0.499999999999989);
#17=CYLINDRICAL_SURFACE('',#812,0.499999999999998);
#18=CYLINDRICAL_SURFACE('',#815,0.500000000000025);
#19=CYLINDRICAL_SURFACE('',#818,0.499999999999998);
#20=CYLINDRICAL_SURFACE('',#821,0.499999999999989);
#21=CYLINDRICAL_SURFACE('',#824,0.500000000000007);
#22=CYLINDRICAL_SURFACE('',#827,0.500000000000025);
#23=CYLINDRICAL_SURFACE('',#830,0.499998420476917);
#24=CYLINDRICAL_SURFACE('',#833,0.500000000000007);
#25=CYLINDRICAL_SURFACE('',#836,0.500000000000007);
#26=CYLINDRICAL_SURFACE('',#839,0.500000000000025);
#27=CIRCLE('',#793,0.500000000000025);
#28=CIRCLE('',#794,0.499999999999998);
#29=CIRCLE('',#795,0.499999999999989);
#30=CIRCLE('',#796,0.500000000000007);
#31=CIRCLE('',#797,0.500000000000025);
#32=CIRCLE('',#798,0.500000000000007);
#33=CIRCLE('',#799,0.499999999999989);
#34=CIRCLE('',#800,0.499999999999998);
#35=CIRCLE('',#801,0.500000000000025);
#36=CIRCLE('',#802,0.500000000000007);
#37=CIRCLE('',#803,0.500000000000007);
#38=CIRCLE('',#804,0.499998420476917);
#39=CIRCLE('',#807,0.500000000000007);
#40=CIRCLE('',#810,0.499999999999989);
#41=CIRCLE('',#813,0.499999999999998);
#42=CIRCLE('',#816,0.500000000000025);
#43=CIRCLE('',#819,0.499999999999998);
#44=CIRCLE('',#822,0.499999999999989);
#45=CIRCLE('',#825,0.500000000000007);
#46=CIRCLE('',#828,0.500000000000025);
#47=CIRCLE('',#831,0.499998420476917);
#48=CIRCLE('',#834,0.500000000000007);
#49=CIRCLE('',#837,0.500000000000007);
#50=CIRCLE('',#840,0.500000000000025);
#51=FACE_BOUND('',#100,.T.);
#52=FACE_BOUND('',#102,.T.);
#53=FACE_BOUND('',#103,.T.);
#54=FACE_BOUND('',#104,.T.);
#55=FACE_BOUND('',#105,.T.);
#56=FACE_BOUND('',#135,.T.);
#57=FACE_BOUND('',#136,.T.);
#58=FACE_BOUND('',#137,.T.);
#59=FACE_BOUND('',#138,.T.);
#60=FACE_OUTER_BOUND('',#99,.T.);
#61=FACE_OUTER_BOUND('',#101,.T.);
#62=FACE_OUTER_BOUND('',#106,.T.);
#63=FACE_OUTER_BOUND('',#107,.T.);
#64=FACE_OUTER_BOUND('',#108,.T.);
#65=FACE_OUTER_BOUND('',#109,.T.);
#66=FACE_OUTER_BOUND('',#110,.T.);
#67=FACE_OUTER_BOUND('',#111,.T.);
#68=FACE_OUTER_BOUND('',#112,.T.);
#69=FACE_OUTER_BOUND('',#113,.T.);
#70=FACE_OUTER_BOUND('',#114,.T.);
#71=FACE_OUTER_BOUND('',#115,.T.);
#72=FACE_OUTER_BOUND('',#116,.T.);
#73=FACE_OUTER_BOUND('',#117,.T.);
#74=FACE_OUTER_BOUND('',#118,.T.);
#75=FACE_OUTER_BOUND('',#119,.T.);
#76=FACE_OUTER_BOUND('',#120,.T.);
#77=FACE_OUTER_BOUND('',#121,.T.);
#78=FACE_OUTER_BOUND('',#122,.T.);
#79=FACE_OUTER_BOUND('',#123,.T.);
#80=FACE_OUTER_BOUND('',#124,.T.);
#81=FACE_OUTER_BOUND('',#125,.T.);
#82=FACE_OUTER_BOUND('',#126,.T.);
#83=FACE_OUTER_BOUND('',#127,.T.);
#84=FACE_OUTER_BOUND('',#128,.T.);
#85=FACE_OUTER_BOUND('',#129,.T.);
#86=FACE_OUTER_BOUND('',#130,.T.);
#87=FACE_OUTER_BOUND('',#131,.T.);
#88=FACE_OUTER_BOUND('',#132,.T.);
#89=FACE_OUTER_BOUND('',#133,.T.);
#90=FACE_OUTER_BOUND('',#134,.T.);
#91=FACE_OUTER_BOUND('',#139,.T.);
#92=FACE_OUTER_BOUND('',#140,.T.);
#93=FACE_OUTER_BOUND('',#141,.T.);
#94=FACE_OUTER_BOUND('',#142,.T.);
#95=FACE_OUTER_BOUND('',#143,.T.);
#96=FACE_OUTER_BOUND('',#144,.T.);
#97=FACE_OUTER_BOUND('',#145,.T.);
#98=FACE_OUTER_BOUND('',#146,.T.);
#99=EDGE_LOOP('',(#503,#504,#505,#506));
#100=EDGE_LOOP('',(#507,#508,#509,#510));
#101=EDGE_LOOP('',(#511,#512,#513,#514));
#102=EDGE_LOOP('',(#515,#516,#517,#518,#519,#520,#521,#522));
#103=EDGE_LOOP('',(#523,#524,#525,#526,#527,#528,#529,#530));
#104=EDGE_LOOP('',(#531,#532,#533,#534,#535,#536,#537,#538));
#105=EDGE_LOOP('',(#539,#540,#541,#542));
#106=EDGE_LOOP('',(#543,#544,#545,#546));
#107=EDGE_LOOP('',(#547,#548,#549,#550));
#108=EDGE_LOOP('',(#551,#552,#553,#554));
#109=EDGE_LOOP('',(#555,#556,#557,#558));
#110=EDGE_LOOP('',(#559,#560,#561,#562));
#111=EDGE_LOOP('',(#563,#564,#565,#566));
#112=EDGE_LOOP('',(#567,#568,#569,#570));
#113=EDGE_LOOP('',(#571,#572,#573,#574));
#114=EDGE_LOOP('',(#575,#576,#577,#578));
#115=EDGE_LOOP('',(#579,#580,#581,#582));
#116=EDGE_LOOP('',(#583,#584,#585,#586));
#117=EDGE_LOOP('',(#587,#588,#589,#590));
#118=EDGE_LOOP('',(#591,#592,#593,#594));
#119=EDGE_LOOP('',(#595,#596,#597,#598));
#120=EDGE_LOOP('',(#599,#600,#601,#602));
#121=EDGE_LOOP('',(#603,#604,#605,#606));
#122=EDGE_LOOP('',(#607,#608,#609,#610));
#123=EDGE_LOOP('',(#611,#612,#613,#614));
#124=EDGE_LOOP('',(#615,#616,#617,#618));
#125=EDGE_LOOP('',(#619,#620,#621,#622));
#126=EDGE_LOOP('',(#623,#624,#625,#626));
#127=EDGE_LOOP('',(#627,#628,#629,#630));
#128=EDGE_LOOP('',(#631,#632,#633,#634));
#129=EDGE_LOOP('',(#635,#636,#637,#638));
#130=EDGE_LOOP('',(#639,#640,#641,#642));
#131=EDGE_LOOP('',(#643,#644,#645,#646));
#132=EDGE_LOOP('',(#647,#648,#649,#650));
#133=EDGE_LOOP('',(#651,#652,#653,#654));
#134=EDGE_LOOP('',(#655,#656,#657,#658));
#135=EDGE_LOOP('',(#659,#660,#661,#662,#663,#664,#665,#666));
#136=EDGE_LOOP('',(#667,#668,#669,#670,#671,#672,#673,#674));
#137=EDGE_LOOP('',(#675,#676,#677,#678,#679,#680,#681,#682));
#138=EDGE_LOOP('',(#683,#684,#685,#686));
#139=EDGE_LOOP('',(#687,#688,#689,#690));
#140=EDGE_LOOP('',(#691,#692,#693,#694,#695,#696));
#141=EDGE_LOOP('',(#697,#698,#699,#700,#701));
#142=EDGE_LOOP('',(#702,#703,#704,#705));
#143=EDGE_LOOP('',(#706,#707,#708,#709));
#144=EDGE_LOOP('',(#710,#711,#712,#713));
#145=EDGE_LOOP('',(#714,#715,#716,#717));
#146=EDGE_LOOP('',(#718,#719,#720,#721,#722));
#147=LINE('',#1072,#233);
#148=LINE('',#1074,#234);
#149=LINE('',#1076,#235);
#150=LINE('',#1077,#236);
#151=LINE('',#1080,#237);
#152=LINE('',#1082,#238);
#153=LINE('',#1084,#239);
#154=LINE('',#1085,#240);
#155=LINE('',#1089,#241);
#156=LINE('',#1091,#242);
#157=LINE('',#1093,#243);
#158=LINE('',#1094,#244);
#159=LINE('',#1099,#245);
#160=LINE('',#1103,#246);
#161=LINE('',#1107,#247);
#162=LINE('',#1110,#248);
#163=LINE('',#1115,#249);
#164=LINE('',#1119,#250);
#165=LINE('',#1123,#251);
#166=LINE('',#1126,#252);
#167=LINE('',#1131,#253);
#168=LINE('',#1135,#254);
#169=LINE('',#1139,#255);
#170=LINE('',#1142,#256);
#171=LINE('',#1145,#257);
#172=LINE('',#1147,#258);
#173=LINE('',#1149,#259);
#174=LINE('',#1150,#260);
#175=LINE('',#1154,#261);
#176=LINE('',#1155,#262);
#177=LINE('',#1156,#263);
#178=LINE('',#1160,#264);
#179=LINE('',#1163,#265);
#180=LINE('',#1164,#266);
#181=LINE('',#1168,#267);
#182=LINE('',#1171,#268);
#183=LINE('',#1172,#269);
#184=LINE('',#1176,#270);
#185=LINE('',#1179,#271);
#186=LINE('',#1180,#272);
#187=LINE('',#1186,#273);
#188=LINE('',#1187,#274);
#189=LINE('',#1188,#275);
#190=LINE('',#1192,#276);
#191=LINE('',#1195,#277);
#192=LINE('',#1196,#278);
#193=LINE('',#1200,#279);
#194=LINE('',#1203,#280);
#195=LINE('',#1204,#281);
#196=LINE('',#1208,#282);
#197=LINE('',#1211,#283);
#198=LINE('',#1212,#284);
#199=LINE('',#1218,#285);
#200=LINE('',#1219,#286);
#201=LINE('',#1220,#287);
#202=LINE('',#1224,#288);
#203=LINE('',#1227,#289);
#204=LINE('',#1228,#290);
#205=LINE('',#1232,#291);
#206=LINE('',#1235,#292);
#207=LINE('',#1236,#293);
#208=LINE('',#1240,#294);
#209=LINE('',#1243,#295);
#210=LINE('',#1244,#296);
#211=LINE('',#1250,#297);
#212=LINE('',#1251,#298);
#213=LINE('',#1252,#299);
#214=LINE('',#1255,#300);
#215=LINE('',#1256,#301);
#216=LINE('',#1259,#302);
#217=LINE('',#1260,#303);
#218=LINE('',#1262,#304);
#219=LINE('',#1266,#305);
#220=LINE('',#1268,#306);
#221=LINE('',#1270,#307);
#222=LINE('',#1271,#308);
#223=LINE('',#1273,#309);
#224=LINE('',#1274,#310);
#225=LINE('',#1277,#311);
#226=LINE('',#1278,#312);
#227=LINE('',#1280,#313);
#228=LINE('',#1281,#314);
#229=LINE('',#1283,#315);
#230=LINE('',#1285,#316);
#231=LINE('',#1287,#317);
#232=LINE('',#1290,#318);
#233=VECTOR('',#858,10.);
#234=VECTOR('',#859,10.);
#235=VECTOR('',#860,10.);
#236=VECTOR('',#861,10.);
#237=VECTOR('',#862,10.);
#238=VECTOR('',#863,10.);
#239=VECTOR('',#864,10.);
#240=VECTOR('',#865,10.);
#241=VECTOR('',#868,10.);
#242=VECTOR('',#869,10.);
#243=VECTOR('',#870,10.);
#244=VECTOR('',#871,10.);
#245=VECTOR('',#874,10.);
#246=VECTOR('',#877,10.);
#247=VECTOR('',#880,10.);
#248=VECTOR('',#883,10.);
#249=VECTOR('',#886,10.);
#250=VECTOR('',#889,10.);
#251=VECTOR('',#892,10.);
#252=VECTOR('',#895,10.);
#253=VECTOR('',#898,10.);
#254=VECTOR('',#901,10.);
#255=VECTOR('',#904,10.);
#256=VECTOR('',#907,10.);
#257=VECTOR('',#908,10.);
#258=VECTOR('',#909,10.);
#259=VECTOR('',#910,10.);
#260=VECTOR('',#911,10.);
#261=VECTOR('',#914,10.);
#262=VECTOR('',#915,10.);
#263=VECTOR('',#916,10.);
#264=VECTOR('',#921,10.);
#265=VECTOR('',#924,10.);
#266=VECTOR('',#925,10.);
#267=VECTOR('',#930,10.);
#268=VECTOR('',#933,10.);
#269=VECTOR('',#934,10.);
#270=VECTOR('',#939,10.);
#271=VECTOR('',#942,10.);
#272=VECTOR('',#943,10.);
#273=VECTOR('',#950,10.);
#274=VECTOR('',#951,10.);
#275=VECTOR('',#952,10.);
#276=VECTOR('',#957,10.);
#277=VECTOR('',#960,10.);
#278=VECTOR('',#961,10.);
#279=VECTOR('',#966,10.);
#280=VECTOR('',#969,10.);
#281=VECTOR('',#970,10.);
#282=VECTOR('',#975,10.);
#283=VECTOR('',#978,10.);
#284=VECTOR('',#979,10.);
#285=VECTOR('',#986,10.);
#286=VECTOR('',#987,10.);
#287=VECTOR('',#988,10.);
#288=VECTOR('',#993,10.);
#289=VECTOR('',#996,10.);
#290=VECTOR('',#997,10.);
#291=VECTOR('',#1002,10.);
#292=VECTOR('',#1005,10.);
#293=VECTOR('',#1006,10.);
#294=VECTOR('',#1011,10.);
#295=VECTOR('',#1014,10.);
#296=VECTOR('',#1015,10.);
#297=VECTOR('',#1022,10.);
#298=VECTOR('',#1023,10.);
#299=VECTOR('',#1024,10.);
#300=VECTOR('',#1027,10.);
#301=VECTOR('',#1028,10.);
#302=VECTOR('',#1031,10.);
#303=VECTOR('',#1032,10.);
#304=VECTOR('',#1035,10.);
#305=VECTOR('',#1038,10.);
#306=VECTOR('',#1039,10.);
#307=VECTOR('',#1040,10.);
#308=VECTOR('',#1041,10.);
#309=VECTOR('',#1044,10.);
#310=VECTOR('',#1045,10.);
#311=VECTOR('',#1048,10.);
#312=VECTOR('',#1049,10.);
#313=VECTOR('',#1050,10.);
#314=VECTOR('',#1051,10.);
#315=VECTOR('',#1054,10.);
#316=VECTOR('',#1057,10.);
#317=VECTOR('',#1060,10.);
#318=VECTOR('',#1065,10.);
#319=VERTEX_POINT('',#1070);
#320=VERTEX_POINT('',#1071);
#321=VERTEX_POINT('',#1073);
#322=VERTEX_POINT('',#1075);
#323=VERTEX_POINT('',#1078);
#324=VERTEX_POINT('',#1079);
#325=VERTEX_POINT('',#1081);
#326=VERTEX_POINT('',#1083);
#327=VERTEX_POINT('',#1087);
#328=VERTEX_POINT('',#1088);
#329=VERTEX_POINT('',#1090);
#330=VERTEX_POINT('',#1092);
#331=VERTEX_POINT('',#1095);
#332=VERTEX_POINT('',#1096);
#333=VERTEX_POINT('',#1098);
#334=VERTEX_POINT('',#1100);
#335=VERTEX_POINT('',#1102);
#336=VERTEX_POINT('',#1104);
#337=VERTEX_POINT('',#1106);
#338=VERTEX_POINT('',#1108);
#339=VERTEX_POINT('',#1111);
#340=VERTEX_POINT('',#1112);
#341=VERTEX_POINT('',#1114);
#342=VERTEX_POINT('',#1116);
#343=VERTEX_POINT('',#1118);
#344=VERTEX_POINT('',#1120);
#345=VERTEX_POINT('',#1122);
#346=VERTEX_POINT('',#1124);
#347=VERTEX_POINT('',#1127);
#348=VERTEX_POINT('',#1128);
#349=VERTEX_POINT('',#1130);
#350=VERTEX_POINT('',#1132);
#351=VERTEX_POINT('',#1134);
#352=VERTEX_POINT('',#1136);
#353=VERTEX_POINT('',#1138);
#354=VERTEX_POINT('',#1140);
#355=VERTEX_POINT('',#1143);
#356=VERTEX_POINT('',#1144);
#357=VERTEX_POINT('',#1146);
#358=VERTEX_POINT('',#1148);
#359=VERTEX_POINT('',#1152);
#360=VERTEX_POINT('',#1153);
#361=VERTEX_POINT('',#1158);
#362=VERTEX_POINT('',#1162);
#363=VERTEX_POINT('',#1166);
#364=VERTEX_POINT('',#1170);
#365=VERTEX_POINT('',#1174);
#366=VERTEX_POINT('',#1178);
#367=VERTEX_POINT('',#1184);
#368=VERTEX_POINT('',#1185);
#369=VERTEX_POINT('',#1190);
#370=VERTEX_POINT('',#1194);
#371=VERTEX_POINT('',#1198);
#372=VERTEX_POINT('',#1202);
#373=VERTEX_POINT('',#1206);
#374=VERTEX_POINT('',#1210);
#375=VERTEX_POINT('',#1216);
#376=VERTEX_POINT('',#1217);
#377=VERTEX_POINT('',#1222);
#378=VERTEX_POINT('',#1226);
#379=VERTEX_POINT('',#1230);
#380=VERTEX_POINT('',#1234);
#381=VERTEX_POINT('',#1238);
#382=VERTEX_POINT('',#1242);
#383=VERTEX_POINT('',#1248);
#384=VERTEX_POINT('',#1249);
#385=VERTEX_POINT('',#1254);
#386=VERTEX_POINT('',#1258);
#387=VERTEX_POINT('',#1264);
#388=VERTEX_POINT('',#1265);
#389=VERTEX_POINT('',#1267);
#390=VERTEX_POINT('',#1269);
#391=VERTEX_POINT('',#1276);
#392=VERTEX_POINT('',#1279);
#393=EDGE_CURVE('',#319,#320,#147,.T.);
#394=EDGE_CURVE('',#320,#321,#148,.T.);
#395=EDGE_CURVE('',#321,#322,#149,.T.);
#396=EDGE_CURVE('',#322,#319,#150,.T.);
#397=EDGE_CURVE('',#323,#324,#151,.T.);
#398=EDGE_CURVE('',#324,#325,#152,.T.);
#399=EDGE_CURVE('',#325,#326,#153,.T.);
#400=EDGE_CURVE('',#326,#323,#154,.T.);
#401=EDGE_CURVE('',#327,#328,#155,.T.);
#402=EDGE_CURVE('',#328,#329,#156,.T.);
#403=EDGE_CURVE('',#329,#330,#157,.T.);
#404=EDGE_CURVE('',#330,#327,#158,.T.);
#405=EDGE_CURVE('',#331,#332,#27,.T.);
#406=EDGE_CURVE('',#332,#333,#159,.T.);
#407=EDGE_CURVE('',#333,#334,#28,.T.);
#408=EDGE_CURVE('',#334,#335,#160,.T.);
#409=EDGE_CURVE('',#335,#336,#29,.T.);
#410=EDGE_CURVE('',#336,#337,#161,.T.);
#411=EDGE_CURVE('',#337,#338,#30,.T.);
#412=EDGE_CURVE('',#338,#331,#162,.T.);
#413=EDGE_CURVE('',#339,#340,#31,.T.);
#414=EDGE_CURVE('',#340,#341,#163,.T.);
#415=EDGE_CURVE('',#341,#342,#32,.T.);
#416=EDGE_CURVE('',#342,#343,#164,.T.);
#417=EDGE_CURVE('',#343,#344,#33,.T.);
#418=EDGE_CURVE('',#344,#345,#165,.T.);
#419=EDGE_CURVE('',#345,#346,#34,.T.);
#420=EDGE_CURVE('',#346,#339,#166,.T.);
#421=EDGE_CURVE('',#347,#348,#35,.T.);
#422=EDGE_CURVE('',#348,#349,#167,.T.);
#423=EDGE_CURVE('',#349,#350,#36,.T.);
#424=EDGE_CURVE('',#350,#351,#168,.T.);
#425=EDGE_CURVE('',#351,#352,#37,.T.);
#426=EDGE_CURVE('',#352,#353,#169,.T.);
#427=EDGE_CURVE('',#353,#354,#38,.T.);
#428=EDGE_CURVE('',#354,#347,#170,.T.);
#429=EDGE_CURVE('',#355,#356,#171,.T.);
#430=EDGE_CURVE('',#357,#355,#172,.T.);
#431=EDGE_CURVE('',#358,#357,#173,.T.);
#432=EDGE_CURVE('',#356,#358,#174,.T.);
#433=EDGE_CURVE('',#359,#360,#175,.T.);
#434=EDGE_CURVE('',#359,#331,#176,.T.);
#435=EDGE_CURVE('',#360,#338,#177,.T.);
#436=EDGE_CURVE('',#360,#361,#39,.T.);
#437=EDGE_CURVE('',#361,#337,#178,.T.);
#438=EDGE_CURVE('',#361,#362,#179,.T.);
#439=EDGE_CURVE('',#362,#336,#180,.T.);
#440=EDGE_CURVE('',#362,#363,#40,.T.);
#441=EDGE_CURVE('',#363,#335,#181,.T.);
#442=EDGE_CURVE('',#363,#364,#182,.T.);
#443=EDGE_CURVE('',#364,#334,#183,.T.);
#444=EDGE_CURVE('',#364,#365,#41,.T.);
#445=EDGE_CURVE('',#365,#333,#184,.T.);
#446=EDGE_CURVE('',#365,#366,#185,.T.);
#447=EDGE_CURVE('',#366,#332,#186,.T.);
#448=EDGE_CURVE('',#366,#359,#42,.T.);
#449=EDGE_CURVE('',#367,#368,#187,.T.);
#450=EDGE_CURVE('',#367,#339,#188,.T.);
#451=EDGE_CURVE('',#368,#346,#189,.T.);
#452=EDGE_CURVE('',#368,#369,#43,.T.);
#453=EDGE_CURVE('',#369,#345,#190,.T.);
#454=EDGE_CURVE('',#369,#370,#191,.T.);
#455=EDGE_CURVE('',#370,#344,#192,.T.);
#456=EDGE_CURVE('',#370,#371,#44,.T.);
#457=EDGE_CURVE('',#371,#343,#193,.T.);
#458=EDGE_CURVE('',#371,#372,#194,.T.);
#459=EDGE_CURVE('',#372,#342,#195,.T.);
#460=EDGE_CURVE('',#372,#373,#45,.T.);
#461=EDGE_CURVE('',#373,#341,#196,.T.);
#462=EDGE_CURVE('',#373,#374,#197,.T.);
#463=EDGE_CURVE('',#374,#340,#198,.T.);
#464=EDGE_CURVE('',#374,#367,#46,.T.);
#465=EDGE_CURVE('',#375,#376,#199,.T.);
#466=EDGE_CURVE('',#375,#347,#200,.T.);
#467=EDGE_CURVE('',#376,#354,#201,.T.);
#468=EDGE_CURVE('',#376,#377,#47,.T.);
#469=EDGE_CURVE('',#377,#353,#202,.T.);
#470=EDGE_CURVE('',#377,#378,#203,.T.);
#471=EDGE_CURVE('',#378,#352,#204,.T.);
#472=EDGE_CURVE('',#378,#379,#48,.T.);
#473=EDGE_CURVE('',#379,#351,#205,.T.);
#474=EDGE_CURVE('',#379,#380,#206,.T.);
#475=EDGE_CURVE('',#380,#350,#207,.T.);
#476=EDGE_CURVE('',#380,#381,#49,.T.);
#477=EDGE_CURVE('',#381,#349,#208,.T.);
#478=EDGE_CURVE('',#381,#382,#209,.T.);
#479=EDGE_CURVE('',#382,#348,#210,.T.);
#480=EDGE_CURVE('',#382,#375,#50,.T.);
#481=EDGE_CURVE('',#383,#384,#211,.T.);
#482=EDGE_CURVE('',#383,#327,#212,.T.);
#483=EDGE_CURVE('',#384,#330,#213,.T.);
#484=EDGE_CURVE('',#384,#385,#214,.T.);
#485=EDGE_CURVE('',#385,#329,#215,.T.);
#486=EDGE_CURVE('',#385,#386,#216,.T.);
#487=EDGE_CURVE('',#386,#328,#217,.T.);
#488=EDGE_CURVE('',#386,#383,#218,.T.);
#489=EDGE_CURVE('',#387,#388,#219,.T.);
#490=EDGE_CURVE('',#388,#389,#220,.T.);
#491=EDGE_CURVE('',#389,#390,#221,.T.);
#492=EDGE_CURVE('',#390,#387,#222,.T.);
#493=EDGE_CURVE('',#355,#322,#223,.T.);
#494=EDGE_CURVE('',#356,#319,#224,.T.);
#495=EDGE_CURVE('',#391,#324,#225,.T.);
#496=EDGE_CURVE('',#388,#391,#226,.T.);
#497=EDGE_CURVE('',#387,#392,#227,.T.);
#498=EDGE_CURVE('',#392,#325,#228,.T.);
#499=EDGE_CURVE('',#389,#323,#229,.T.);
#500=EDGE_CURVE('',#357,#321,#230,.T.);
#501=EDGE_CURVE('',#358,#320,#231,.T.);
#502=EDGE_CURVE('',#390,#326,#232,.T.);
#503=ORIENTED_EDGE('',*,*,#393,.T.);
#504=ORIENTED_EDGE('',*,*,#394,.T.);
#505=ORIENTED_EDGE('',*,*,#395,.T.);
#506=ORIENTED_EDGE('',*,*,#396,.T.);
#507=ORIENTED_EDGE('',*,*,#397,.T.);
#508=ORIENTED_EDGE('',*,*,#398,.T.);
#509=ORIENTED_EDGE('',*,*,#399,.T.);
#510=ORIENTED_EDGE('',*,*,#400,.T.);
#511=ORIENTED_EDGE('',*,*,#401,.T.);
#512=ORIENTED_EDGE('',*,*,#402,.T.);
#513=ORIENTED_EDGE('',*,*,#403,.T.);
#514=ORIENTED_EDGE('',*,*,#404,.T.);
#515=ORIENTED_EDGE('',*,*,#405,.T.);
#516=ORIENTED_EDGE('',*,*,#406,.T.);
#517=ORIENTED_EDGE('',*,*,#407,.T.);
#518=ORIENTED_EDGE('',*,*,#408,.T.);
#519=ORIENTED_EDGE('',*,*,#409,.T.);
#520=ORIENTED_EDGE('',*,*,#410,.T.);
#521=ORIENTED_EDGE('',*,*,#411,.T.);
#522=ORIENTED_EDGE('',*,*,#412,.T.);
#523=ORIENTED_EDGE('',*,*,#413,.T.);
#524=ORIENTED_EDGE('',*,*,#414,.T.);
#525=ORIENTED_EDGE('',*,*,#415,.T.);
#526=ORIENTED_EDGE('',*,*,#416,.T.);
#527=ORIENTED_EDGE('',*,*,#417,.T.);
#528=ORIENTED_EDGE('',*,*,#418,.T.);
#529=ORIENTED_EDGE('',*,*,#419,.T.);
#530=ORIENTED_EDGE('',*,*,#420,.T.);
#531=ORIENTED_EDGE('',*,*,#421,.T.);
#532=ORIENTED_EDGE('',*,*,#422,.T.);
#533=ORIENTED_EDGE('',*,*,#423,.T.);
#534=ORIENTED_EDGE('',*,*,#424,.T.);
#535=ORIENTED_EDGE('',*,*,#425,.T.);
#536=ORIENTED_EDGE('',*,*,#426,.T.);
#537=ORIENTED_EDGE('',*,*,#427,.T.);
#538=ORIENTED_EDGE('',*,*,#428,.T.);
#539=ORIENTED_EDGE('',*,*,#429,.F.);
#540=ORIENTED_EDGE('',*,*,#430,.F.);
#541=ORIENTED_EDGE('',*,*,#431,.F.);
#542=ORIENTED_EDGE('',*,*,#432,.F.);
#543=ORIENTED_EDGE('',*,*,#433,.F.);
#544=ORIENTED_EDGE('',*,*,#434,.T.);
#545=ORIENTED_EDGE('',*,*,#412,.F.);
#546=ORIENTED_EDGE('',*,*,#435,.F.);
#547=ORIENTED_EDGE('',*,*,#436,.F.);
#548=ORIENTED_EDGE('',*,*,#435,.T.);
#549=ORIENTED_EDGE('',*,*,#411,.F.);
#550=ORIENTED_EDGE('',*,*,#437,.F.);
#551=ORIENTED_EDGE('',*,*,#438,.F.);
#552=ORIENTED_EDGE('',*,*,#437,.T.);
#553=ORIENTED_EDGE('',*,*,#410,.F.);
#554=ORIENTED_EDGE('',*,*,#439,.F.);
#555=ORIENTED_EDGE('',*,*,#440,.F.);
#556=ORIENTED_EDGE('',*,*,#439,.T.);
#557=ORIENTED_EDGE('',*,*,#409,.F.);
#558=ORIENTED_EDGE('',*,*,#441,.F.);
#559=ORIENTED_EDGE('',*,*,#442,.F.);
#560=ORIENTED_EDGE('',*,*,#441,.T.);
#561=ORIENTED_EDGE('',*,*,#408,.F.);
#562=ORIENTED_EDGE('',*,*,#443,.F.);
#563=ORIENTED_EDGE('',*,*,#444,.F.);
#564=ORIENTED_EDGE('',*,*,#443,.T.);
#565=ORIENTED_EDGE('',*,*,#407,.F.);
#566=ORIENTED_EDGE('',*,*,#445,.F.);
#567=ORIENTED_EDGE('',*,*,#446,.F.);
#568=ORIENTED_EDGE('',*,*,#445,.T.);
#569=ORIENTED_EDGE('',*,*,#406,.F.);
#570=ORIENTED_EDGE('',*,*,#447,.F.);
#571=ORIENTED_EDGE('',*,*,#448,.F.);
#572=ORIENTED_EDGE('',*,*,#447,.T.);
#573=ORIENTED_EDGE('',*,*,#405,.F.);
#574=ORIENTED_EDGE('',*,*,#434,.F.);
#575=ORIENTED_EDGE('',*,*,#449,.F.);
#576=ORIENTED_EDGE('',*,*,#450,.T.);
#577=ORIENTED_EDGE('',*,*,#420,.F.);
#578=ORIENTED_EDGE('',*,*,#451,.F.);
#579=ORIENTED_EDGE('',*,*,#452,.F.);
#580=ORIENTED_EDGE('',*,*,#451,.T.);
#581=ORIENTED_EDGE('',*,*,#419,.F.);
#582=ORIENTED_EDGE('',*,*,#453,.F.);
#583=ORIENTED_EDGE('',*,*,#454,.F.);
#584=ORIENTED_EDGE('',*,*,#453,.T.);
#585=ORIENTED_EDGE('',*,*,#418,.F.);
#586=ORIENTED_EDGE('',*,*,#455,.F.);
#587=ORIENTED_EDGE('',*,*,#456,.F.);
#588=ORIENTED_EDGE('',*,*,#455,.T.);
#589=ORIENTED_EDGE('',*,*,#417,.F.);
#590=ORIENTED_EDGE('',*,*,#457,.F.);
#591=ORIENTED_EDGE('',*,*,#458,.F.);
#592=ORIENTED_EDGE('',*,*,#457,.T.);
#593=ORIENTED_EDGE('',*,*,#416,.F.);
#594=ORIENTED_EDGE('',*,*,#459,.F.);
#595=ORIENTED_EDGE('',*,*,#460,.F.);
#596=ORIENTED_EDGE('',*,*,#459,.T.);
#597=ORIENTED_EDGE('',*,*,#415,.F.);
#598=ORIENTED_EDGE('',*,*,#461,.F.);
#599=ORIENTED_EDGE('',*,*,#462,.F.);
#600=ORIENTED_EDGE('',*,*,#461,.T.);
#601=ORIENTED_EDGE('',*,*,#414,.F.);
#602=ORIENTED_EDGE('',*,*,#463,.F.);
#603=ORIENTED_EDGE('',*,*,#464,.F.);
#604=ORIENTED_EDGE('',*,*,#463,.T.);
#605=ORIENTED_EDGE('',*,*,#413,.F.);
#606=ORIENTED_EDGE('',*,*,#450,.F.);
#607=ORIENTED_EDGE('',*,*,#465,.F.);
#608=ORIENTED_EDGE('',*,*,#466,.T.);
#609=ORIENTED_EDGE('',*,*,#428,.F.);
#610=ORIENTED_EDGE('',*,*,#467,.F.);
#611=ORIENTED_EDGE('',*,*,#468,.F.);
#612=ORIENTED_EDGE('',*,*,#467,.T.);
#613=ORIENTED_EDGE('',*,*,#427,.F.);
#614=ORIENTED_EDGE('',*,*,#469,.F.);
#615=ORIENTED_EDGE('',*,*,#470,.F.);
#616=ORIENTED_EDGE('',*,*,#469,.T.);
#617=ORIENTED_EDGE('',*,*,#426,.F.);
#618=ORIENTED_EDGE('',*,*,#471,.F.);
#619=ORIENTED_EDGE('',*,*,#472,.F.);
#620=ORIENTED_EDGE('',*,*,#471,.T.);
#621=ORIENTED_EDGE('',*,*,#425,.F.);
#622=ORIENTED_EDGE('',*,*,#473,.F.);
#623=ORIENTED_EDGE('',*,*,#474,.F.);
#624=ORIENTED_EDGE('',*,*,#473,.T.);
#625=ORIENTED_EDGE('',*,*,#424,.F.);
#626=ORIENTED_EDGE('',*,*,#475,.F.);
#627=ORIENTED_EDGE('',*,*,#476,.F.);
#628=ORIENTED_EDGE('',*,*,#475,.T.);
#629=ORIENTED_EDGE('',*,*,#423,.F.);
#630=ORIENTED_EDGE('',*,*,#477,.F.);
#631=ORIENTED_EDGE('',*,*,#478,.F.);
#632=ORIENTED_EDGE('',*,*,#477,.T.);
#633=ORIENTED_EDGE('',*,*,#422,.F.);
#634=ORIENTED_EDGE('',*,*,#479,.F.);
#635=ORIENTED_EDGE('',*,*,#480,.F.);
#636=ORIENTED_EDGE('',*,*,#479,.T.);
#637=ORIENTED_EDGE('',*,*,#421,.F.);
#638=ORIENTED_EDGE('',*,*,#466,.F.);
#639=ORIENTED_EDGE('',*,*,#481,.F.);
#640=ORIENTED_EDGE('',*,*,#482,.T.);
#641=ORIENTED_EDGE('',*,*,#404,.F.);
#642=ORIENTED_EDGE('',*,*,#483,.F.);
#643=ORIENTED_EDGE('',*,*,#484,.F.);
#644=ORIENTED_EDGE('',*,*,#483,.T.);
#645=ORIENTED_EDGE('',*,*,#403,.F.);
#646=ORIENTED_EDGE('',*,*,#485,.F.);
#647=ORIENTED_EDGE('',*,*,#486,.F.);
#648=ORIENTED_EDGE('',*,*,#485,.T.);
#649=ORIENTED_EDGE('',*,*,#402,.F.);
#650=ORIENTED_EDGE('',*,*,#487,.F.);
#651=ORIENTED_EDGE('',*,*,#488,.F.);
#652=ORIENTED_EDGE('',*,*,#487,.T.);
#653=ORIENTED_EDGE('',*,*,#401,.F.);
#654=ORIENTED_EDGE('',*,*,#482,.F.);
#655=ORIENTED_EDGE('',*,*,#488,.T.);
#656=ORIENTED_EDGE('',*,*,#481,.T.);
#657=ORIENTED_EDGE('',*,*,#484,.T.);
#658=ORIENTED_EDGE('',*,*,#486,.T.);
#659=ORIENTED_EDGE('',*,*,#480,.T.);
#660=ORIENTED_EDGE('',*,*,#465,.T.);
#661=ORIENTED_EDGE('',*,*,#468,.T.);
#662=ORIENTED_EDGE('',*,*,#470,.T.);
#663=ORIENTED_EDGE('',*,*,#472,.T.);
#664=ORIENTED_EDGE('',*,*,#474,.T.);
#665=ORIENTED_EDGE('',*,*,#476,.T.);
#666=ORIENTED_EDGE('',*,*,#478,.T.);
#667=ORIENTED_EDGE('',*,*,#464,.T.);
#668=ORIENTED_EDGE('',*,*,#449,.T.);
#669=ORIENTED_EDGE('',*,*,#452,.T.);
#670=ORIENTED_EDGE('',*,*,#454,.T.);
#671=ORIENTED_EDGE('',*,*,#456,.T.);
#672=ORIENTED_EDGE('',*,*,#458,.T.);
#673=ORIENTED_EDGE('',*,*,#460,.T.);
#674=ORIENTED_EDGE('',*,*,#462,.T.);
#675=ORIENTED_EDGE('',*,*,#448,.T.);
#676=ORIENTED_EDGE('',*,*,#433,.T.);
#677=ORIENTED_EDGE('',*,*,#436,.T.);
#678=ORIENTED_EDGE('',*,*,#438,.T.);
#679=ORIENTED_EDGE('',*,*,#440,.T.);
#680=ORIENTED_EDGE('',*,*,#442,.T.);
#681=ORIENTED_EDGE('',*,*,#444,.T.);
#682=ORIENTED_EDGE('',*,*,#446,.T.);
#683=ORIENTED_EDGE('',*,*,#489,.T.);
#684=ORIENTED_EDGE('',*,*,#490,.T.);
#685=ORIENTED_EDGE('',*,*,#491,.T.);
#686=ORIENTED_EDGE('',*,*,#492,.T.);
#687=ORIENTED_EDGE('',*,*,#493,.F.);
#688=ORIENTED_EDGE('',*,*,#429,.T.);
#689=ORIENTED_EDGE('',*,*,#494,.T.);
#690=ORIENTED_EDGE('',*,*,#396,.F.);
#691=ORIENTED_EDGE('',*,*,#495,.F.);
#692=ORIENTED_EDGE('',*,*,#496,.F.);
#693=ORIENTED_EDGE('',*,*,#489,.F.);
#694=ORIENTED_EDGE('',*,*,#497,.T.);
#695=ORIENTED_EDGE('',*,*,#498,.T.);
#696=ORIENTED_EDGE('',*,*,#398,.F.);
#697=ORIENTED_EDGE('',*,*,#499,.F.);
#698=ORIENTED_EDGE('',*,*,#490,.F.);
#699=ORIENTED_EDGE('',*,*,#496,.T.);
#700=ORIENTED_EDGE('',*,*,#495,.T.);
#701=ORIENTED_EDGE('',*,*,#397,.F.);
#702=ORIENTED_EDGE('',*,*,#500,.F.);
#703=ORIENTED_EDGE('',*,*,#430,.T.);
#704=ORIENTED_EDGE('',*,*,#493,.T.);
#705=ORIENTED_EDGE('',*,*,#395,.F.);
#706=ORIENTED_EDGE('',*,*,#501,.F.);
#707=ORIENTED_EDGE('',*,*,#431,.T.);
#708=ORIENTED_EDGE('',*,*,#500,.T.);
#709=ORIENTED_EDGE('',*,*,#394,.F.);
#710=ORIENTED_EDGE('',*,*,#432,.T.);
#711=ORIENTED_EDGE('',*,*,#501,.T.);
#712=ORIENTED_EDGE('',*,*,#393,.F.);
#713=ORIENTED_EDGE('',*,*,#494,.F.);
#714=ORIENTED_EDGE('',*,*,#502,.F.);
#715=ORIENTED_EDGE('',*,*,#491,.F.);
#716=ORIENTED_EDGE('',*,*,#499,.T.);
#717=ORIENTED_EDGE('',*,*,#400,.F.);
#718=ORIENTED_EDGE('',*,*,#502,.T.);
#719=ORIENTED_EDGE('',*,*,#399,.F.);
#720=ORIENTED_EDGE('',*,*,#498,.F.);
#721=ORIENTED_EDGE('',*,*,#497,.F.);
#722=ORIENTED_EDGE('',*,*,#492,.F.);
#723=PLANE('',#791);
#724=PLANE('',#792);
#725=PLANE('',#805);
#726=PLANE('',#808);
#727=PLANE('',#811);
#728=PLANE('',#814);
#729=PLANE('',#817);
#730=PLANE('',#820);
#731=PLANE('',#823);
#732=PLANE('',#826);
#733=PLANE('',#829);
#734=PLANE('',#832);
#735=PLANE('',#835);
#736=PLANE('',#838);
#737=PLANE('',#841);
#738=PLANE('',#842);
#739=PLANE('',#843);
#740=PLANE('',#844);
#741=PLANE('',#845);
#742=PLANE('',#846);
#743=PLANE('',#847);
#744=PLANE('',#848);
#745=PLANE('',#849);
#746=PLANE('',#850);
#747=PLANE('',#851);
#748=PLANE('',#852);
#749=PLANE('',#853);
#750=ADVANCED_FACE('',(#60,#51),#723,.T.);
#751=ADVANCED_FACE('',(#61,#52,#53,#54,#55),#724,.F.);
#752=ADVANCED_FACE('',(#62),#725,.T.);
#753=ADVANCED_FACE('',(#63),#15,.F.);
#754=ADVANCED_FACE('',(#64),#726,.T.);
#755=ADVANCED_FACE('',(#65),#16,.F.);
#756=ADVANCED_FACE('',(#66),#727,.T.);
#757=ADVANCED_FACE('',(#67),#17,.F.);
#758=ADVANCED_FACE('',(#68),#728,.T.);
#759=ADVANCED_FACE('',(#69),#18,.F.);
#760=ADVANCED_FACE('',(#70),#729,.T.);
#761=ADVANCED_FACE('',(#71),#19,.F.);
#762=ADVANCED_FACE('',(#72),#730,.T.);
#763=ADVANCED_FACE('',(#73),#20,.F.);
#764=ADVANCED_FACE('',(#74),#731,.T.);
#765=ADVANCED_FACE('',(#75),#21,.F.);
#766=ADVANCED_FACE('',(#76),#732,.T.);
#767=ADVANCED_FACE('',(#77),#22,.F.);
#768=ADVANCED_FACE('',(#78),#733,.T.);
#769=ADVANCED_FACE('',(#79),#23,.F.);
#770=ADVANCED_FACE('',(#80),#734,.T.);
#771=ADVANCED_FACE('',(#81),#24,.F.);
#772=ADVANCED_FACE('',(#82),#735,.T.);
#773=ADVANCED_FACE('',(#83),#25,.F.);
#774=ADVANCED_FACE('',(#84),#736,.T.);
#775=ADVANCED_FACE('',(#85),#26,.F.);
#776=ADVANCED_FACE('',(#86),#737,.T.);
#777=ADVANCED_FACE('',(#87),#738,.T.);
#778=ADVANCED_FACE('',(#88),#739,.T.);
#779=ADVANCED_FACE('',(#89),#740,.T.);
#780=ADVANCED_FACE('',(#90,#56,#57,#58,#59),#741,.T.);
#781=ADVANCED_FACE('',(#91),#742,.T.);
#782=ADVANCED_FACE('',(#92),#743,.T.);
#783=ADVANCED_FACE('',(#93),#744,.T.);
#784=ADVANCED_FACE('',(#94),#745,.T.);
#785=ADVANCED_FACE('',(#95),#746,.T.);
#786=ADVANCED_FACE('',(#96),#747,.T.);
#787=ADVANCED_FACE('',(#97),#748,.T.);
#788=ADVANCED_FACE('',(#98),#749,.T.);
#789=CLOSED_SHELL('',(#750,#751,#752,#753,#754,#755,#756,#757,#758,#759,
#760,#761,#762,#763,#764,#765,#766,#767,#768,#769,#770,#771,#772,#773,#774,
#775,#776,#777,#778,#779,#780,#781,#782,#783,#784,#785,#786,#787,#788));
#790=AXIS2_PLACEMENT_3D('',#1068,#854,#855);
#791=AXIS2_PLACEMENT_3D('',#1069,#856,#857);
#792=AXIS2_PLACEMENT_3D('',#1086,#866,#867);
#793=AXIS2_PLACEMENT_3D('',#1097,#872,#873);
#794=AXIS2_PLACEMENT_3D('',#1101,#875,#876);
#795=AXIS2_PLACEMENT_3D('',#1105,#878,#879);
#796=AXIS2_PLACEMENT_3D('',#1109,#881,#882);
#797=AXIS2_PLACEMENT_3D('',#1113,#884,#885);
#798=AXIS2_PLACEMENT_3D('',#1117,#887,#888);
#799=AXIS2_PLACEMENT_3D('',#1121,#890,#891);
#800=AXIS2_PLACEMENT_3D('',#1125,#893,#894);
#801=AXIS2_PLACEMENT_3D('',#1129,#896,#897);
#802=AXIS2_PLACEMENT_3D('',#1133,#899,#900);
#803=AXIS2_PLACEMENT_3D('',#1137,#902,#903);
#804=AXIS2_PLACEMENT_3D('',#1141,#905,#906);
#805=AXIS2_PLACEMENT_3D('',#1151,#912,#913);
#806=AXIS2_PLACEMENT_3D('',#1157,#917,#918);
#807=AXIS2_PLACEMENT_3D('',#1159,#919,#920);
#808=AXIS2_PLACEMENT_3D('',#1161,#922,#923);
#809=AXIS2_PLACEMENT_3D('',#1165,#926,#927);
#810=AXIS2_PLACEMENT_3D('',#1167,#928,#929);
#811=AXIS2_PLACEMENT_3D('',#1169,#931,#932);
#812=AXIS2_PLACEMENT_3D('',#1173,#935,#936);
#813=AXIS2_PLACEMENT_3D('',#1175,#937,#938);
#814=AXIS2_PLACEMENT_3D('',#1177,#940,#941);
#815=AXIS2_PLACEMENT_3D('',#1181,#944,#945);
#816=AXIS2_PLACEMENT_3D('',#1182,#946,#947);
#817=AXIS2_PLACEMENT_3D('',#1183,#948,#949);
#818=AXIS2_PLACEMENT_3D('',#1189,#953,#954);
#819=AXIS2_PLACEMENT_3D('',#1191,#955,#956);
#820=AXIS2_PLACEMENT_3D('',#1193,#958,#959);
#821=AXIS2_PLACEMENT_3D('',#1197,#962,#963);
#822=AXIS2_PLACEMENT_3D('',#1199,#964,#965);
#823=AXIS2_PLACEMENT_3D('',#1201,#967,#968);
#824=AXIS2_PLACEMENT_3D('',#1205,#971,#972);
#825=AXIS2_PLACEMENT_3D('',#1207,#973,#974);
#826=AXIS2_PLACEMENT_3D('',#1209,#976,#977);
#827=AXIS2_PLACEMENT_3D('',#1213,#980,#981);
#828=AXIS2_PLACEMENT_3D('',#1214,#982,#983);
#829=AXIS2_PLACEMENT_3D('',#1215,#984,#985);
#830=AXIS2_PLACEMENT_3D('',#1221,#989,#990);
#831=AXIS2_PLACEMENT_3D('',#1223,#991,#992);
#832=AXIS2_PLACEMENT_3D('',#1225,#994,#995);
#833=AXIS2_PLACEMENT_3D('',#1229,#998,#999);
#834=AXIS2_PLACEMENT_3D('',#1231,#1000,#1001);
#835=AXIS2_PLACEMENT_3D('',#1233,#1003,#1004);
#836=AXIS2_PLACEMENT_3D('',#1237,#1007,#1008);
#837=AXIS2_PLACEMENT_3D('',#1239,#1009,#1010);
#838=AXIS2_PLACEMENT_3D('',#1241,#1012,#1013);
#839=AXIS2_PLACEMENT_3D('',#1245,#1016,#1017);
#840=AXIS2_PLACEMENT_3D('',#1246,#1018,#1019);
#841=AXIS2_PLACEMENT_3D('',#1247,#1020,#1021);
#842=AXIS2_PLACEMENT_3D('',#1253,#1025,#1026);
#843=AXIS2_PLACEMENT_3D('',#1257,#1029,#1030);
#844=AXIS2_PLACEMENT_3D('',#1261,#1033,#1034);
#845=AXIS2_PLACEMENT_3D('',#1263,#1036,#1037);
#846=AXIS2_PLACEMENT_3D('',#1272,#1042,#1043);
#847=AXIS2_PLACEMENT_3D('',#1275,#1046,#1047);
#848=AXIS2_PLACEMENT_3D('',#1282,#1052,#1053);
#849=AXIS2_PLACEMENT_3D('',#1284,#1055,#1056);
#850=AXIS2_PLACEMENT_3D('',#1286,#1058,#1059);
#851=AXIS2_PLACEMENT_3D('',#1288,#1061,#1062);
#852=AXIS2_PLACEMENT_3D('',#1289,#1063,#1064);
#853=AXIS2_PLACEMENT_3D('',#1291,#1066,#1067);
#854=DIRECTION('axis',(0.,0.,1.));
#855=DIRECTION('refdir',(1.,0.,0.));
#856=DIRECTION('center_axis',(0.,0.,-1.));
#857=DIRECTION('ref_axis',(-1.,0.,0.));
#858=DIRECTION('',(-1.,0.,0.));
#859=DIRECTION('',(0.,1.,0.));
#860=DIRECTION('',(1.,-1.22464679914735E-16,0.));
#861=DIRECTION('',(-1.22464679914735E-16,-1.,0.));
#862=DIRECTION('',(1.,0.,0.));
#863=DIRECTION('',(1.22464679914735E-16,1.,0.));
#864=DIRECTION('',(-1.,0.,0.));
#865=DIRECTION('',(0.,-1.,0.));
#866=DIRECTION('center_axis',(0.,0.,1.));
#867=DIRECTION('ref_axis',(-1.,0.,0.));
#868=DIRECTION('',(-1.,0.,0.));
#869=DIRECTION('',(0.,1.,0.));
#870=DIRECTION('',(1.,0.,0.));
#871=DIRECTION('',(0.,-1.,0.));
#872=DIRECTION('center_axis',(0.,0.,1.));
#873=DIRECTION('ref_axis',(1.,0.,0.));
#874=DIRECTION('',(-1.,0.,0.));
#875=DIRECTION('center_axis',(0.,0.,1.));
#876=DIRECTION('ref_axis',(0.,1.,0.));
#877=DIRECTION('',(0.,-1.,0.));
#878=DIRECTION('center_axis',(0.,0.,1.));
#879=DIRECTION('ref_axis',(-1.,0.,0.));
#880=DIRECTION('',(1.,0.,0.));
#881=DIRECTION('center_axis',(0.,0.,1.));
#882=DIRECTION('ref_axis',(0.,-1.,0.));
#883=DIRECTION('',(0.,1.,0.));
#884=DIRECTION('center_axis',(0.,0.,1.));
#885=DIRECTION('ref_axis',(1.,0.,0.));
#886=DIRECTION('',(-1.,0.,0.));
#887=DIRECTION('center_axis',(0.,0.,1.));
#888=DIRECTION('ref_axis',(0.,1.,0.));
#889=DIRECTION('',(0.,-1.,0.));
#890=DIRECTION('center_axis',(0.,0.,1.));
#891=DIRECTION('ref_axis',(-1.,0.,0.));
#892=DIRECTION('',(1.,0.,0.));
#893=DIRECTION('center_axis',(0.,0.,1.));
#894=DIRECTION('ref_axis',(0.,-1.,0.));
#895=DIRECTION('',(0.,1.,0.));
#896=DIRECTION('center_axis',(0.,0.,1.));
#897=DIRECTION('ref_axis',(1.,0.,0.));
#898=DIRECTION('',(-1.,0.,0.));
#899=DIRECTION('center_axis',(0.,0.,1.));
#900=DIRECTION('ref_axis',(0.,1.,0.));
#901=DIRECTION('',(0.,-1.,0.));
#902=DIRECTION('center_axis',(0.,0.,1.));
#903=DIRECTION('ref_axis',(-1.,0.,0.));
#904=DIRECTION('',(1.,0.,0.));
#905=DIRECTION('center_axis',(0.,0.,1.));
#906=DIRECTION('ref_axis',(0.,-1.,0.));
#907=DIRECTION('',(0.,1.,0.));
#908=DIRECTION('',(-1.22464679914735E-16,-1.,0.));
#909=DIRECTION('',(1.,0.,0.));
#910=DIRECTION('',(0.,1.,0.));
#911=DIRECTION('',(-1.,0.,0.));
#912=DIRECTION('center_axis',(-1.,0.,0.));
#913=DIRECTION('ref_axis',(0.,1.,0.));
#914=DIRECTION('',(0.,-1.,0.));
#915=DIRECTION('',(0.,0.,-1.));
#916=DIRECTION('',(0.,0.,-1.));
#917=DIRECTION('center_axis',(0.,0.,-1.));
#918=DIRECTION('ref_axis',(0.,-1.,0.));
#919=DIRECTION('center_axis',(0.,0.,-1.));
#920=DIRECTION('ref_axis',(0.,-1.,0.));
#921=DIRECTION('',(0.,0.,-1.));
#922=DIRECTION('center_axis',(0.,1.,0.));
#923=DIRECTION('ref_axis',(1.,0.,0.));
#924=DIRECTION('',(-1.,0.,0.));
#925=DIRECTION('',(0.,0.,-1.));
#926=DIRECTION('center_axis',(0.,0.,-1.));
#927=DIRECTION('ref_axis',(-1.,0.,0.));
#928=DIRECTION('center_axis',(0.,0.,-1.));
#929=DIRECTION('ref_axis',(-1.,0.,0.));
#930=DIRECTION('',(0.,0.,-1.));
#931=DIRECTION('center_axis',(1.,0.,0.));
#932=DIRECTION('ref_axis',(0.,-1.,0.));
#933=DIRECTION('',(0.,1.,0.));
#934=DIRECTION('',(0.,0.,-1.));
#935=DIRECTION('center_axis',(0.,0.,-1.));
#936=DIRECTION('ref_axis',(0.,1.,0.));
#937=DIRECTION('center_axis',(0.,0.,-1.));
#938=DIRECTION('ref_axis',(0.,1.,0.));
#939=DIRECTION('',(0.,0.,-1.));
#940=DIRECTION('center_axis',(0.,-1.,0.));
#941=DIRECTION('ref_axis',(-1.,0.,0.));
#942=DIRECTION('',(1.,0.,0.));
#943=DIRECTION('',(0.,0.,-1.));
#944=DIRECTION('center_axis',(0.,0.,-1.));
#945=DIRECTION('ref_axis',(1.,0.,0.));
#946=DIRECTION('center_axis',(0.,0.,-1.));
#947=DIRECTION('ref_axis',(1.,0.,0.));
#948=DIRECTION('center_axis',(-1.,0.,0.));
#949=DIRECTION('ref_axis',(0.,1.,0.));
#950=DIRECTION('',(0.,-1.,0.));
#951=DIRECTION('',(0.,0.,-1.));
#952=DIRECTION('',(0.,0.,-1.));
#953=DIRECTION('center_axis',(0.,0.,-1.));
#954=DIRECTION('ref_axis',(0.,-1.,0.));
#955=DIRECTION('center_axis',(0.,0.,-1.));
#956=DIRECTION('ref_axis',(0.,-1.,0.));
#957=DIRECTION('',(0.,0.,-1.));
#958=DIRECTION('center_axis',(0.,1.,0.));
#959=DIRECTION('ref_axis',(1.,0.,0.));
#960=DIRECTION('',(-1.,0.,0.));
#961=DIRECTION('',(0.,0.,-1.));
#962=DIRECTION('center_axis',(0.,0.,-1.));
#963=DIRECTION('ref_axis',(-1.,0.,0.));
#964=DIRECTION('center_axis',(0.,0.,-1.));
#965=DIRECTION('ref_axis',(-1.,0.,0.));
#966=DIRECTION('',(0.,0.,-1.));
#967=DIRECTION('center_axis',(1.,0.,0.));
#968=DIRECTION('ref_axis',(0.,-1.,0.));
#969=DIRECTION('',(0.,1.,0.));
#970=DIRECTION('',(0.,0.,-1.));
#971=DIRECTION('center_axis',(0.,0.,-1.));
#972=DIRECTION('ref_axis',(0.,1.,0.));
#973=DIRECTION('center_axis',(0.,0.,-1.));
#974=DIRECTION('ref_axis',(0.,1.,0.));
#975=DIRECTION('',(0.,0.,-1.));
#976=DIRECTION('center_axis',(0.,-1.,0.));
#977=DIRECTION('ref_axis',(-1.,0.,0.));
#978=DIRECTION('',(1.,0.,0.));
#979=DIRECTION('',(0.,0.,-1.));
#980=DIRECTION('center_axis',(0.,0.,-1.));
#981=DIRECTION('ref_axis',(1.,0.,0.));
#982=DIRECTION('center_axis',(0.,0.,-1.));
#983=DIRECTION('ref_axis',(1.,0.,0.));
#984=DIRECTION('center_axis',(-1.,0.,0.));
#985=DIRECTION('ref_axis',(0.,1.,0.));
#986=DIRECTION('',(0.,-1.,0.));
#987=DIRECTION('',(0.,0.,-1.));
#988=DIRECTION('',(0.,0.,-1.));
#989=DIRECTION('center_axis',(0.,0.,-1.));
#990=DIRECTION('ref_axis',(0.,-1.,0.));
#991=DIRECTION('center_axis',(0.,0.,-1.));
#992=DIRECTION('ref_axis',(0.,-1.,0.));
#993=DIRECTION('',(0.,0.,-1.));
#994=DIRECTION('center_axis',(0.,1.,0.));
#995=DIRECTION('ref_axis',(1.,0.,0.));
#996=DIRECTION('',(-1.,0.,0.));
#997=DIRECTION('',(0.,0.,-1.));
#998=DIRECTION('center_axis',(0.,0.,-1.));
#999=DIRECTION('ref_axis',(-1.,0.,0.));
#1000=DIRECTION('center_axis',(0.,0.,-1.));
#1001=DIRECTION('ref_axis',(-1.,0.,0.));
#1002=DIRECTION('',(0.,0.,-1.));
#1003=DIRECTION('center_axis',(1.,0.,0.));
#1004=DIRECTION('ref_axis',(0.,-1.,0.));
#1005=DIRECTION('',(0.,1.,0.));
#1006=DIRECTION('',(0.,0.,-1.));
#1007=DIRECTION('center_axis',(0.,0.,-1.));
#1008=DIRECTION('ref_axis',(0.,1.,0.));
#1009=DIRECTION('center_axis',(0.,0.,-1.));
#1010=DIRECTION('ref_axis',(0.,1.,0.));
#1011=DIRECTION('',(0.,0.,-1.));
#1012=DIRECTION('center_axis',(0.,-1.,0.));
#1013=DIRECTION('ref_axis',(-1.,0.,0.));
#1014=DIRECTION('',(1.,0.,0.));
#1015=DIRECTION('',(0.,0.,-1.));
#1016=DIRECTION('center_axis',(0.,0.,-1.));
#1017=DIRECTION('ref_axis',(1.,0.,0.));
#1018=DIRECTION('center_axis',(0.,0.,-1.));
#1019=DIRECTION('ref_axis',(1.,0.,0.));
#1020=DIRECTION('center_axis',(1.,0.,0.));
#1021=DIRECTION('ref_axis',(0.,-1.,0.));
#1022=DIRECTION('',(0.,1.,0.));
#1023=DIRECTION('',(0.,0.,-1.));
#1024=DIRECTION('',(0.,0.,-1.));
#1025=DIRECTION('center_axis',(0.,1.,0.));
#1026=DIRECTION('ref_axis',(1.,0.,0.));
#1027=DIRECTION('',(-1.,0.,0.));
#1028=DIRECTION('',(0.,0.,-1.));
#1029=DIRECTION('center_axis',(-1.,0.,0.));
#1030=DIRECTION('ref_axis',(0.,1.,0.));
#1031=DIRECTION('',(0.,-1.,0.));
#1032=DIRECTION('',(0.,0.,-1.));
#1033=DIRECTION('center_axis',(0.,-1.,0.));
#1034=DIRECTION('ref_axis',(-1.,0.,0.));
#1035=DIRECTION('',(1.,0.,0.));
#1036=DIRECTION('center_axis',(0.,0.,1.));
#1037=DIRECTION('ref_axis',(-1.,0.,0.));
#1038=DIRECTION('',(0.,-1.,0.));
#1039=DIRECTION('',(-1.,0.,0.));
#1040=DIRECTION('',(0.,1.,0.));
#1041=DIRECTION('',(1.,0.,0.));
#1042=DIRECTION('center_axis',(1.,-1.22464679914735E-16,0.));
#1043=DIRECTION('ref_axis',(-1.22464679914735E-16,-1.,0.));
#1044=DIRECTION('',(0.,0.,-1.));
#1045=DIRECTION('',(0.,0.,-1.));
#1046=DIRECTION('center_axis',(-1.,1.22464679914735E-16,0.));
#1047=DIRECTION('ref_axis',(1.22464679914735E-16,1.,0.));
#1048=DIRECTION('',(0.,0.,-1.));
#1049=DIRECTION('',(0.,0.,-1.));
#1050=DIRECTION('',(0.,0.,-1.));
#1051=DIRECTION('',(0.,0.,-1.));
#1052=DIRECTION('center_axis',(0.,1.,0.));
#1053=DIRECTION('ref_axis',(1.,0.,0.));
#1054=DIRECTION('',(0.,0.,-1.));
#1055=DIRECTION('center_axis',(0.,1.,0.));
#1056=DIRECTION('ref_axis',(1.,0.,0.));
#1057=DIRECTION('',(0.,0.,-1.));
#1058=DIRECTION('center_axis',(-1.,0.,0.));
#1059=DIRECTION('ref_axis',(0.,1.,0.));
#1060=DIRECTION('',(0.,0.,-1.));
#1061=DIRECTION('center_axis',(0.,-1.,0.));
#1062=DIRECTION('ref_axis',(-1.,0.,0.));
#1063=DIRECTION('center_axis',(1.,0.,0.));
#1064=DIRECTION('ref_axis',(0.,-1.,0.));
#1065=DIRECTION('',(0.,0.,-1.));
#1066=DIRECTION('center_axis',(0.,-1.,0.));
#1067=DIRECTION('ref_axis',(-1.,0.,0.));
#1068=CARTESIAN_POINT('',(0.,0.,0.));
#1069=CARTESIAN_POINT('Origin',(77.25,80.,99.0000000149012));
#1070=CARTESIAN_POINT('',(95.,25.,99.0000000149012));
#1071=CARTESIAN_POINT('',(65.,25.,99.0000000149012));
#1072=CARTESIAN_POINT('',(83.375,25.,99.0000000149012));
#1073=CARTESIAN_POINT('',(65.,135.,99.0000000149012));
#1074=CARTESIAN_POINT('',(65.,52.5,99.0000000149012));
#1075=CARTESIAN_POINT('',(95.,135.,99.0000000149012));
#1076=CARTESIAN_POINT('',(76.625,135.,99.0000000149012));
#1077=CARTESIAN_POINT('',(95.,107.5,99.0000000149012));
#1078=CARTESIAN_POINT('',(70.0000010430813,30.0000004470348,99.0000000149012));
#1079=CARTESIAN_POINT('',(89.9999989569187,29.999998062849,99.0000000149012));
#1080=CARTESIAN_POINT('',(73.6250005215406,30.0000004470348,99.0000000149012));
#1081=CARTESIAN_POINT('',(89.9999989569187,129.999999552965,99.0000000149012));
#1082=CARTESIAN_POINT('',(89.9999989569187,54.9999990314245,99.0000000149012));
#1083=CARTESIAN_POINT('',(70.0000010430813,130.000001937151,99.0000000149012));
#1084=CARTESIAN_POINT('',(83.375,130.000001937151,99.0000000149012));
#1085=CARTESIAN_POINT('',(70.0000010430813,105.000000968575,99.0000000149012));
#1086=CARTESIAN_POINT('Origin',(80.0000011920929,80.0000011920929,150.000000014901));
#1087=CARTESIAN_POINT('',(150.000002235174,10.0000001490116,150.000000014901));
#1088=CARTESIAN_POINT('',(10.0000001490116,10.0000001490116,150.000000014901));
#1089=CARTESIAN_POINT('',(10.0000001490116,10.0000001490116,150.000000014901));
#1090=CARTESIAN_POINT('',(10.0000001490116,150.000002235174,150.000000014901));
#1091=CARTESIAN_POINT('',(10.0000001490116,150.000002235174,150.000000014901));
#1092=CARTESIAN_POINT('',(150.000002235174,150.000002235174,150.000000014901));
#1093=CARTESIAN_POINT('',(150.000002235174,150.000002235174,150.000000014901));
#1094=CARTESIAN_POINT('',(150.000002235174,10.0000001490116,150.000000014901));
#1095=CARTESIAN_POINT('',(124.,52.5000022351742,150.000000014901));
#1096=CARTESIAN_POINT('',(123.5,53.0000022351742,150.000000014901));
#1097=CARTESIAN_POINT('Origin',(123.5,52.5000022351742,150.000000014901));
#1098=CARTESIAN_POINT('',(110.5,53.0000022351742,150.000000014901));
#1099=CARTESIAN_POINT('',(123.5,53.0000022351742,150.000000014901));
#1100=CARTESIAN_POINT('',(110.,52.5000022351742,150.000000014901));
#1101=CARTESIAN_POINT('Origin',(110.5,52.5000022351742,150.000000014901));
#1102=CARTESIAN_POINT('',(110.,39.5000022351742,150.000000014901));
#1103=CARTESIAN_POINT('',(110.,52.5000022351742,150.000000014901));
#1104=CARTESIAN_POINT('',(110.5,39.0000022351742,150.000000014901));
#1105=CARTESIAN_POINT('Origin',(110.5,39.5000022351742,150.000000014901));
#1106=CARTESIAN_POINT('',(123.5,39.0000022351742,150.000000014901));
#1107=CARTESIAN_POINT('',(110.5,39.0000022351742,150.000000014901));
#1108=CARTESIAN_POINT('',(124.,39.5000022351742,150.000000014901));
#1109=CARTESIAN_POINT('Origin',(123.5,39.5000022351742,150.000000014901));
#1110=CARTESIAN_POINT('',(124.,39.5000022351742,150.000000014901));
#1111=CARTESIAN_POINT('',(124.,86.5000022351742,150.000000014901));
#1112=CARTESIAN_POINT('',(123.5,87.0000022351742,150.000000014901));
#1113=CARTESIAN_POINT('Origin',(123.5,86.5000022351742,150.000000014901));
#1114=CARTESIAN_POINT('',(110.5,87.0000022351742,150.000000014901));
#1115=CARTESIAN_POINT('',(123.5,87.0000022351742,150.000000014901));
#1116=CARTESIAN_POINT('',(110.,86.5000022351742,150.000000014901));
#1117=CARTESIAN_POINT('Origin',(110.5,86.5000022351742,150.000000014901));
#1118=CARTESIAN_POINT('',(110.,73.5000022351742,150.000000014901));
#1119=CARTESIAN_POINT('',(110.,86.5000022351742,150.000000014901));
#1120=CARTESIAN_POINT('',(110.5,73.0000022351742,150.000000014901));
#1121=CARTESIAN_POINT('Origin',(110.5,73.5000022351742,150.000000014901));
#1122=CARTESIAN_POINT('',(123.5,73.0000022351742,150.000000014901));
#1123=CARTESIAN_POINT('',(110.5,73.0000022351742,150.000000014901));
#1124=CARTESIAN_POINT('',(124.,73.5000022351742,150.000000014901));
#1125=CARTESIAN_POINT('Origin',(123.5,73.5000022351742,150.000000014901));
#1126=CARTESIAN_POINT('',(124.,73.5000022351742,150.000000014901));
#1127=CARTESIAN_POINT('',(124.,120.500000655651,150.000000014901));
#1128=CARTESIAN_POINT('',(123.5,121.000000655651,150.000000014901));
#1129=CARTESIAN_POINT('Origin',(123.5,120.500000655651,150.000000014901));
#1130=CARTESIAN_POINT('',(110.5,121.000002235174,150.000000014901));
#1131=CARTESIAN_POINT('',(123.5,121.000002235174,150.000000014901));
#1132=CARTESIAN_POINT('',(110.,120.500002235174,150.000000014901));
#1133=CARTESIAN_POINT('Origin',(110.5,120.500002235174,150.000000014901));
#1134=CARTESIAN_POINT('',(110.,107.500000655651,150.000000014901));
#1135=CARTESIAN_POINT('',(110.,120.500002235174,150.000000014901));
#1136=CARTESIAN_POINT('',(110.5,107.000000655651,150.000000014901));
#1137=CARTESIAN_POINT('Origin',(110.5,107.500000655651,150.000000014901));
#1138=CARTESIAN_POINT('',(123.500001579523,107.000002235174,150.000000014901));
#1139=CARTESIAN_POINT('',(110.5,107.000002235174,150.000000014901));
#1140=CARTESIAN_POINT('',(124.,107.500000655651,150.000000014901));
#1141=CARTESIAN_POINT('Origin',(123.500001579523,107.500000655651,150.000000014901));
#1142=CARTESIAN_POINT('',(124.,107.500000655651,150.000000014901));
#1143=CARTESIAN_POINT('',(95.,135.,150.000000014901));
#1144=CARTESIAN_POINT('',(95.,25.,150.000000014901));
#1145=CARTESIAN_POINT('',(95.,135.,150.000000014901));
#1146=CARTESIAN_POINT('',(65.,135.,150.000000014901));
#1147=CARTESIAN_POINT('',(65.,135.,150.000000014901));
#1148=CARTESIAN_POINT('',(65.,25.,150.000000014901));
#1149=CARTESIAN_POINT('',(65.,25.,150.000000014901));
#1150=CARTESIAN_POINT('',(89.5,25.,150.000000014901));
#1151=CARTESIAN_POINT('Origin',(124.,39.5000022351742,155.000000014901));
#1152=CARTESIAN_POINT('',(124.,52.5000022351742,155.000000014901));
#1153=CARTESIAN_POINT('',(124.,39.5000022351742,155.000000014901));
#1154=CARTESIAN_POINT('',(124.,39.5000022351742,155.000000014901));
#1155=CARTESIAN_POINT('',(124.,52.5000022351742,155.000000014901));
#1156=CARTESIAN_POINT('',(124.,39.5000022351742,155.000000014901));
#1157=CARTESIAN_POINT('Origin',(123.5,39.5000022351742,155.000000014901));
#1158=CARTESIAN_POINT('',(123.5,39.0000022351742,155.000000014901));
#1159=CARTESIAN_POINT('Origin',(123.5,39.5000022351742,155.000000014901));
#1160=CARTESIAN_POINT('',(123.5,39.0000022351742,155.000000014901));
#1161=CARTESIAN_POINT('Origin',(110.5,39.0000022351742,155.000000014901));
#1162=CARTESIAN_POINT('',(110.5,39.0000022351742,155.000000014901));
#1163=CARTESIAN_POINT('',(110.5,39.0000022351742,155.000000014901));
#1164=CARTESIAN_POINT('',(110.5,39.0000022351742,155.000000014901));
#1165=CARTESIAN_POINT('Origin',(110.5,39.5000022351742,155.000000014901));
#1166=CARTESIAN_POINT('',(110.,39.5000022351742,155.000000014901));
#1167=CARTESIAN_POINT('Origin',(110.5,39.5000022351742,155.000000014901));
#1168=CARTESIAN_POINT('',(110.,39.5000022351742,155.000000014901));
#1169=CARTESIAN_POINT('Origin',(110.,52.5000022351742,155.000000014901));
#1170=CARTESIAN_POINT('',(110.,52.5000022351742,155.000000014901));
#1171=CARTESIAN_POINT('',(110.,52.5000022351742,155.000000014901));
#1172=CARTESIAN_POINT('',(110.,52.5000022351742,155.000000014901));
#1173=CARTESIAN_POINT('Origin',(110.5,52.5000022351742,155.000000014901));
#1174=CARTESIAN_POINT('',(110.5,53.0000022351742,155.000000014901));
#1175=CARTESIAN_POINT('Origin',(110.5,52.5000022351742,155.000000014901));
#1176=CARTESIAN_POINT('',(110.5,53.0000022351742,155.000000014901));
#1177=CARTESIAN_POINT('Origin',(123.5,53.0000022351742,155.000000014901));
#1178=CARTESIAN_POINT('',(123.5,53.0000022351742,155.000000014901));
#1179=CARTESIAN_POINT('',(123.5,53.0000022351742,155.000000014901));
#1180=CARTESIAN_POINT('',(123.5,53.0000022351742,155.000000014901));
#1181=CARTESIAN_POINT('Origin',(123.5,52.5000022351742,155.000000014901));
#1182=CARTESIAN_POINT('Origin',(123.5,52.5000022351742,155.000000014901));
#1183=CARTESIAN_POINT('Origin',(124.,73.5000022351742,155.000000014901));
#1184=CARTESIAN_POINT('',(124.,86.5000022351742,155.000000014901));
#1185=CARTESIAN_POINT('',(124.,73.5000022351742,155.000000014901));
#1186=CARTESIAN_POINT('',(124.,73.5000022351742,155.000000014901));
#1187=CARTESIAN_POINT('',(124.,86.5000022351742,155.000000014901));
#1188=CARTESIAN_POINT('',(124.,73.5000022351742,155.000000014901));
#1189=CARTESIAN_POINT('Origin',(123.5,73.5000022351742,155.000000014901));
#1190=CARTESIAN_POINT('',(123.5,73.0000022351742,155.000000014901));
#1191=CARTESIAN_POINT('Origin',(123.5,73.5000022351742,155.000000014901));
#1192=CARTESIAN_POINT('',(123.5,73.0000022351742,155.000000014901));
#1193=CARTESIAN_POINT('Origin',(110.5,73.0000022351742,155.000000014901));
#1194=CARTESIAN_POINT('',(110.5,73.0000022351742,155.000000014901));
#1195=CARTESIAN_POINT('',(110.5,73.0000022351742,155.000000014901));
#1196=CARTESIAN_POINT('',(110.5,73.0000022351742,155.000000014901));
#1197=CARTESIAN_POINT('Origin',(110.5,73.5000022351742,155.000000014901));
#1198=CARTESIAN_POINT('',(110.,73.5000022351742,155.000000014901));
#1199=CARTESIAN_POINT('Origin',(110.5,73.5000022351742,155.000000014901));
#1200=CARTESIAN_POINT('',(110.,73.5000022351742,155.000000014901));
#1201=CARTESIAN_POINT('Origin',(110.,86.5000022351742,155.000000014901));
#1202=CARTESIAN_POINT('',(110.,86.5000022351742,155.000000014901));
#1203=CARTESIAN_POINT('',(110.,86.5000022351742,155.000000014901));
#1204=CARTESIAN_POINT('',(110.,86.5000022351742,155.000000014901));
#1205=CARTESIAN_POINT('Origin',(110.5,86.5000022351742,155.000000014901));
#1206=CARTESIAN_POINT('',(110.5,87.0000022351742,155.000000014901));
#1207=CARTESIAN_POINT('Origin',(110.5,86.5000022351742,155.000000014901));
#1208=CARTESIAN_POINT('',(110.5,87.0000022351742,155.000000014901));
#1209=CARTESIAN_POINT('Origin',(123.5,87.0000022351742,155.000000014901));
#1210=CARTESIAN_POINT('',(123.5,87.0000022351742,155.000000014901));
#1211=CARTESIAN_POINT('',(123.5,87.0000022351742,155.000000014901));
#1212=CARTESIAN_POINT('',(123.5,87.0000022351742,155.000000014901));
#1213=CARTESIAN_POINT('Origin',(123.5,86.5000022351742,155.000000014901));
#1214=CARTESIAN_POINT('Origin',(123.5,86.5000022351742,155.000000014901));
#1215=CARTESIAN_POINT('Origin',(124.,107.500000655651,155.000000014901));
#1216=CARTESIAN_POINT('',(124.,120.500000655651,155.000000014901));
#1217=CARTESIAN_POINT('',(124.,107.500000655651,155.000000014901));
#1218=CARTESIAN_POINT('',(124.,107.500000655651,155.000000014901));
#1219=CARTESIAN_POINT('',(124.,120.500000655651,155.000000014901));
#1220=CARTESIAN_POINT('',(124.,107.500000655651,155.000000014901));
#1221=CARTESIAN_POINT('Origin',(123.500001579523,107.500000655651,155.000000014901));
#1222=CARTESIAN_POINT('',(123.500001579523,107.000002235174,155.000000014901));
#1223=CARTESIAN_POINT('Origin',(123.500001579523,107.500000655651,155.000000014901));
#1224=CARTESIAN_POINT('',(123.500001579523,107.000002235174,155.000000014901));
#1225=CARTESIAN_POINT('Origin',(110.5,107.000002235174,155.000000014901));
#1226=CARTESIAN_POINT('',(110.5,107.000000655651,155.000000014901));
#1227=CARTESIAN_POINT('',(110.5,107.000002235174,155.000000014901));
#1228=CARTESIAN_POINT('',(110.5,107.000000655651,155.000000014901));
#1229=CARTESIAN_POINT('Origin',(110.5,107.500000655651,155.000000014901));
#1230=CARTESIAN_POINT('',(110.,107.500000655651,155.000000014901));
#1231=CARTESIAN_POINT('Origin',(110.5,107.500000655651,155.000000014901));
#1232=CARTESIAN_POINT('',(110.,107.500000655651,155.000000014901));
#1233=CARTESIAN_POINT('Origin',(110.,120.500002235174,155.000000014901));
#1234=CARTESIAN_POINT('',(110.,120.500002235174,155.000000014901));
#1235=CARTESIAN_POINT('',(110.,120.500002235174,155.000000014901));
#1236=CARTESIAN_POINT('',(110.,120.500002235174,155.000000014901));
#1237=CARTESIAN_POINT('Origin',(110.5,120.500002235174,155.000000014901));
#1238=CARTESIAN_POINT('',(110.5,121.000002235174,155.000000014901));
#1239=CARTESIAN_POINT('Origin',(110.5,120.500002235174,155.000000014901));
#1240=CARTESIAN_POINT('',(110.5,121.000002235174,155.000000014901));
#1241=CARTESIAN_POINT('Origin',(123.5,121.000002235174,155.000000014901));
#1242=CARTESIAN_POINT('',(123.5,121.000000655651,155.000000014901));
#1243=CARTESIAN_POINT('',(123.5,121.000002235174,155.000000014901));
#1244=CARTESIAN_POINT('',(123.5,121.000000655651,155.000000014901));
#1245=CARTESIAN_POINT('Origin',(123.5,120.500000655651,155.000000014901));
#1246=CARTESIAN_POINT('Origin',(123.5,120.500000655651,155.000000014901));
#1247=CARTESIAN_POINT('Origin',(150.000002235174,150.000002235174,155.000000014901));
#1248=CARTESIAN_POINT('',(150.000002235174,10.0000001490116,155.000000014901));
#1249=CARTESIAN_POINT('',(150.000002235174,150.000002235174,155.000000014901));
#1250=CARTESIAN_POINT('',(150.000002235174,10.0000001490116,155.000000014901));
#1251=CARTESIAN_POINT('',(150.000002235174,10.0000001490116,155.000000014901));
#1252=CARTESIAN_POINT('',(150.000002235174,150.000002235174,155.000000014901));
#1253=CARTESIAN_POINT('Origin',(10.0000001490116,150.000002235174,155.000000014901));
#1254=CARTESIAN_POINT('',(10.0000001490116,150.000002235174,155.000000014901));
#1255=CARTESIAN_POINT('',(150.000002235174,150.000002235174,155.000000014901));
#1256=CARTESIAN_POINT('',(10.0000001490116,150.000002235174,155.000000014901));
#1257=CARTESIAN_POINT('Origin',(10.0000001490116,10.0000001490116,155.000000014901));
#1258=CARTESIAN_POINT('',(10.0000001490116,10.0000001490116,155.000000014901));
#1259=CARTESIAN_POINT('',(10.0000001490116,150.000002235174,155.000000014901));
#1260=CARTESIAN_POINT('',(10.0000001490116,10.0000001490116,155.000000014901));
#1261=CARTESIAN_POINT('Origin',(150.000002235174,10.0000001490116,155.000000014901));
#1262=CARTESIAN_POINT('',(10.0000001490116,10.0000001490116,155.000000014901));
#1263=CARTESIAN_POINT('Origin',(80.0000011920929,80.0000011920929,155.000000014901));
#1264=CARTESIAN_POINT('',(90.0000013411045,130.000001937151,155.000000014901));
#1265=CARTESIAN_POINT('',(90.0000013411045,30.0000004470348,155.000000014901));
#1266=CARTESIAN_POINT('',(90.0000013411045,130.000001937151,155.000000014901));
#1267=CARTESIAN_POINT('',(70.0000010430813,30.0000004470348,155.000000014901));
#1268=CARTESIAN_POINT('',(90.0000013411045,30.0000004470348,155.000000014901));
#1269=CARTESIAN_POINT('',(70.0000010430813,130.000001937151,155.000000014901));
#1270=CARTESIAN_POINT('',(70.0000010430813,30.0000004470348,155.000000014901));
#1271=CARTESIAN_POINT('',(70.0000010430813,130.000001937151,155.000000014901));
#1272=CARTESIAN_POINT('Origin',(95.,135.,150.000000014901));
#1273=CARTESIAN_POINT('',(95.,135.,110.000000014901));
#1274=CARTESIAN_POINT('',(95.,25.,110.000000014901));
#1275=CARTESIAN_POINT('Origin',(89.9999989569187,29.999998062849,150.000000014901));
#1276=CARTESIAN_POINT('',(89.9999989569187,29.999998062849,150.000000014901));
#1277=CARTESIAN_POINT('',(89.9999989569187,29.999998062849,150.000000014901));
#1278=CARTESIAN_POINT('',(90.0000013411045,30.0000004470348,155.000000014901));
#1279=CARTESIAN_POINT('',(89.9999989569187,129.999999552965,150.000000014901));
#1280=CARTESIAN_POINT('',(90.0000013411045,130.000001937151,155.000000014901));
#1281=CARTESIAN_POINT('',(89.9999989569187,129.999999552965,150.000000014901));
#1282=CARTESIAN_POINT('Origin',(70.0000010430813,30.0000004470348,150.000000014901));
#1283=CARTESIAN_POINT('',(70.0000010430813,30.0000004470348,155.000000014901));
#1284=CARTESIAN_POINT('Origin',(65.,135.,150.000000014901));
#1285=CARTESIAN_POINT('',(65.,135.,110.000000014901));
#1286=CARTESIAN_POINT('Origin',(65.,25.,150.000000014901));
#1287=CARTESIAN_POINT('',(65.,25.,110.000000014901));
#1288=CARTESIAN_POINT('Origin',(89.5,25.,150.000000014901));
#1289=CARTESIAN_POINT('Origin',(70.0000010430813,130.000001937151,150.000000014901));
#1290=CARTESIAN_POINT('',(70.0000010430813,130.000001937151,155.000000014901));
#1291=CARTESIAN_POINT('Origin',(89.5,130.000001937151,150.000000014901));
#1292=UNCERTAINTY_MEASURE_WITH_UNIT(LENGTH_MEASURE(0.01),#1296,
'DISTANCE_ACCURACY_VALUE',
'Maximum model space distance between geometric entities at asserted c
onnectivities');
#1293=UNCERTAINTY_MEASURE_WITH_UNIT(LENGTH_MEASURE(0.01),#1296,
'DISTANCE_ACCURACY_VALUE',
'Maximum model space distance between geometric entities at asserted c
onnectivities');
#1294=(
GEOMETRIC_REPRESENTATION_CONTEXT(3)
GLOBAL_UNCERTAINTY_ASSIGNED_CONTEXT((#1292))
GLOBAL_UNIT_ASSIGNED_CONTEXT((#1296,#1297,#1298))
REPRESENTATION_CONTEXT('','3D')
);
#1295=(
GEOMETRIC_REPRESENTATION_CONTEXT(3)
GLOBAL_UNCERTAINTY_ASSIGNED_CONTEXT((#1293))
GLOBAL_UNIT_ASSIGNED_CONTEXT((#1296,#1297,#1298))
REPRESENTATION_CONTEXT('','3D')
);
#1296=(
LENGTH_UNIT()
NAMED_UNIT(*)
SI_UNIT(.MILLI.,.METRE.)
);
#1297=(
NAMED_UNIT(*)
PLANE_ANGLE_UNIT()
SI_UNIT($,.RADIAN.)
);
#1298=(
NAMED_UNIT(*)
SI_UNIT($,.STERADIAN.)
SOLID_ANGLE_UNIT()
);
#1299=SHAPE_DEFINITION_REPRESENTATION(#1300,#1301);
#1300=PRODUCT_DEFINITION_SHAPE('',$,#1303);
#1301=SHAPE_REPRESENTATION('',(#790),#1294);
#1302=PRODUCT_DEFINITION_CONTEXT('part definition',#1307,'design');
#1303=PRODUCT_DEFINITION('Jukebox','Jukebox v19',#1304,#1302);
#1304=PRODUCT_DEFINITION_FORMATION('',$,#1309);
#1305=PRODUCT_RELATED_PRODUCT_CATEGORY('Jukebox v19','Jukebox v19',(#1309));
#1306=APPLICATION_PROTOCOL_DEFINITION('international standard',
'automotive_design',2009,#1307);
#1307=APPLICATION_CONTEXT(
'Core Data for Automotive Mechanical Design Process');
#1308=PRODUCT_CONTEXT('part definition',#1307,'mechanical');
#1309=PRODUCT('Jukebox','Jukebox v19',$,(#1308));
#1310=PRESENTATION_STYLE_ASSIGNMENT((#1329));
#1311=PRESENTATION_STYLE_ASSIGNMENT((#1330));
#1312=PRESENTATION_STYLE_ASSIGNMENT((#1331));
#1313=PRESENTATION_STYLE_ASSIGNMENT((#1332));
#1314=PRESENTATION_STYLE_ASSIGNMENT((#1333));
#1315=PRESENTATION_STYLE_ASSIGNMENT((#1334));
#1316=PRESENTATION_STYLE_ASSIGNMENT((#1335));
#1317=PRESENTATION_STYLE_ASSIGNMENT((#1336));
#1318=PRESENTATION_STYLE_ASSIGNMENT((#1337));
#1319=PRESENTATION_STYLE_ASSIGNMENT((#1338));
#1320=PRESENTATION_STYLE_ASSIGNMENT((#1339));
#1321=PRESENTATION_STYLE_ASSIGNMENT((#1340));
#1322=PRESENTATION_STYLE_ASSIGNMENT((#1341));
#1323=PRESENTATION_STYLE_ASSIGNMENT((#1342));
#1324=PRESENTATION_STYLE_ASSIGNMENT((#1343));
#1325=PRESENTATION_STYLE_ASSIGNMENT((#1344));
#1326=PRESENTATION_STYLE_ASSIGNMENT((#1345));
#1327=PRESENTATION_STYLE_ASSIGNMENT((#1346));
#1328=PRESENTATION_STYLE_ASSIGNMENT((#1347));
#1329=SURFACE_STYLE_USAGE(.BOTH.,#1348);
#1330=SURFACE_STYLE_USAGE(.BOTH.,#1349);
#1331=SURFACE_STYLE_USAGE(.BOTH.,#1350);
#1332=SURFACE_STYLE_USAGE(.BOTH.,#1351);
#1333=SURFACE_STYLE_USAGE(.BOTH.,#1352);
#1334=SURFACE_STYLE_USAGE(.BOTH.,#1353);
#1335=SURFACE_STYLE_USAGE(.BOTH.,#1354);
#1336=SURFACE_STYLE_USAGE(.BOTH.,#1355);
#1337=SURFACE_STYLE_USAGE(.BOTH.,#1356);
#1338=SURFACE_STYLE_USAGE(.BOTH.,#1357);
#1339=SURFACE_STYLE_USAGE(.BOTH.,#1358);
#1340=SURFACE_STYLE_USAGE(.BOTH.,#1359);
#1341=SURFACE_STYLE_USAGE(.BOTH.,#1360);
#1342=SURFACE_STYLE_USAGE(.BOTH.,#1361);
#1343=SURFACE_STYLE_USAGE(.BOTH.,#1362);
#1344=SURFACE_STYLE_USAGE(.BOTH.,#1363);
#1345=SURFACE_STYLE_USAGE(.BOTH.,#1364);
#1346=SURFACE_STYLE_USAGE(.BOTH.,#1365);
#1347=SURFACE_STYLE_USAGE(.BOTH.,#1366);
#1348=SURFACE_SIDE_STYLE('',(#1367));
#1349=SURFACE_SIDE_STYLE('',(#1368));
#1350=SURFACE_SIDE_STYLE('',(#1369));
#1351=SURFACE_SIDE_STYLE('',(#1370));
#1352=SURFACE_SIDE_STYLE('',(#1371));
#1353=SURFACE_SIDE_STYLE('',(#1372));
#1354=SURFACE_SIDE_STYLE('',(#1373));
#1355=SURFACE_SIDE_STYLE('',(#1374));
#1356=SURFACE_SIDE_STYLE('',(#1375));
#1357=SURFACE_SIDE_STYLE('',(#1376));
#1358=SURFACE_SIDE_STYLE('',(#1377));
#1359=SURFACE_SIDE_STYLE('',(#1378));
#1360=SURFACE_SIDE_STYLE('',(#1379));
#1361=SURFACE_SIDE_STYLE('',(#1380));
#1362=SURFACE_SIDE_STYLE('',(#1381));
#1363=SURFACE_SIDE_STYLE('',(#1382));
#1364=SURFACE_SIDE_STYLE('',(#1383));
#1365=SURFACE_SIDE_STYLE('',(#1384));
#1366=SURFACE_SIDE_STYLE('',(#1385));
#1367=SURFACE_STYLE_FILL_AREA(#1386);
#1368=SURFACE_STYLE_FILL_AREA(#1387);
#1369=SURFACE_STYLE_FILL_AREA(#1388);
#1370=SURFACE_STYLE_FILL_AREA(#1389);
#1371=SURFACE_STYLE_FILL_AREA(#1390);
#1372=SURFACE_STYLE_FILL_AREA(#1391);
#1373=SURFACE_STYLE_FILL_AREA(#1392);
#1374=SURFACE_STYLE_FILL_AREA(#1393);
#1375=SURFACE_STYLE_FILL_AREA(#1394);
#1376=SURFACE_STYLE_FILL_AREA(#1395);
#1377=SURFACE_STYLE_FILL_AREA(#1396);
#1378=SURFACE_STYLE_FILL_AREA(#1397);
#1379=SURFACE_STYLE_FILL_AREA(#1398);
#1380=SURFACE_STYLE_FILL_AREA(#1399);
#1381=SURFACE_STYLE_FILL_AREA(#1400);
#1382=SURFACE_STYLE_FILL_AREA(#1401);
#1383=SURFACE_STYLE_FILL_AREA(#1402);
#1384=SURFACE_STYLE_FILL_AREA(#1403);
#1385=SURFACE_STYLE_FILL_AREA(#1404);
#1386=FILL_AREA_STYLE('Opaque(203,203,203)',(#1405));
#1387=FILL_AREA_STYLE('Opaque(25,25,25)',(#1406));
#1388=FILL_AREA_STYLE('Opaque(63,63,63)',(#1407));
#1389=FILL_AREA_STYLE('Opaque(237,237,237)',(#1408));
#1390=FILL_AREA_STYLE('Opaque(160,160,160)',(#1409));
#1391=FILL_AREA_STYLE('Opaque(89,149,218)',(#1410));
#1392=FILL_AREA_STYLE('Opaque(246,246,243)',(#1411));
#1393=FILL_AREA_STYLE('Opaque(237,206,195)',(#1412));
#1394=FILL_AREA_STYLE('Opaque(229,202,158)',(#1413));
#1395=FILL_AREA_STYLE('Opaque(245,245,246)',(#1414));
#1396=FILL_AREA_STYLE('Opaque(0,192,0)',(#1415));
#1397=FILL_AREA_STYLE('Opaque(64,64,64)',(#1416));
#1398=FILL_AREA_STYLE('Opaque(229,229,229)',(#1417));
#1399=FILL_AREA_STYLE('Opaque(137,89,86)',(#1418));
#1400=FILL_AREA_STYLE('Opaque(165,158,150)',(#1419));
#1401=FILL_AREA_STYLE('Opaque(192,192,192)',(#1420));
#1402=FILL_AREA_STYLE('Opaque(219,219,219)',(#1421));
#1403=FILL_AREA_STYLE('Opaque(202,209,238)',(#1422));
#1404=FILL_AREA_STYLE('Steel - Satin',(#1423));
#1405=FILL_AREA_STYLE_COLOUR('Opaque(203,203,203)',#1424);
#1406=FILL_AREA_STYLE_COLOUR('Opaque(25,25,25)',#1425);
#1407=FILL_AREA_STYLE_COLOUR('Opaque(63,63,63)',#1426);
#1408=FILL_AREA_STYLE_COLOUR('Opaque(237,237,237)',#1427);
#1409=FILL_AREA_STYLE_COLOUR('Opaque(160,160,160)',#1428);
#1410=FILL_AREA_STYLE_COLOUR('Opaque(89,149,218)',#1429);
#1411=FILL_AREA_STYLE_COLOUR('Opaque(246,246,243)',#1430);
#1412=FILL_AREA_STYLE_COLOUR('Opaque(237,206,195)',#1431);
#1413=FILL_AREA_STYLE_COLOUR('Opaque(229,202,158)',#1432);
#1414=FILL_AREA_STYLE_COLOUR('Opaque(245,245,246)',#1433);
#1415=FILL_AREA_STYLE_COLOUR('Opaque(0,192,0)',#1434);
#1416=FILL_AREA_STYLE_COLOUR('Opaque(64,64,64)',#1435);
#1417=FILL_AREA_STYLE_COLOUR('Opaque(229,229,229)',#1436);
#1418=FILL_AREA_STYLE_COLOUR('Opaque(137,89,86)',#1437);
#1419=FILL_AREA_STYLE_COLOUR('Opaque(165,158,150)',#1438);
#1420=FILL_AREA_STYLE_COLOUR('Opaque(192,192,192)',#1439);
#1421=FILL_AREA_STYLE_COLOUR('Opaque(219,219,219)',#1440);
#1422=FILL_AREA_STYLE_COLOUR('Opaque(202,209,238)',#1441);
#1423=FILL_AREA_STYLE_COLOUR('Steel - Satin',#1442);
#1424=COLOUR_RGB('Opaque(203,203,203)',0.796078431372549,0.796078431372549,
0.796078431372549);
#1425=COLOUR_RGB('Opaque(25,25,25)',0.0980392156862745,0.0980392156862745,
0.0980392156862745);
#1426=COLOUR_RGB('Opaque(63,63,63)',0.250980392156863,0.250980392156863,
0.250980392156863);
#1427=COLOUR_RGB('Opaque(237,237,237)',0.929411764705882,0.929411764705882,
0.929411764705882);
#1428=COLOUR_RGB('Opaque(160,160,160)',0.627450980392157,0.627450980392157,
0.627450980392157);
#1429=COLOUR_RGB('Opaque(89,149,218)',0.349019607843137,0.584313725490196,
0.854901960784314);
#1430=COLOUR_RGB('Opaque(246,246,243)',0.964705882352941,0.964705882352941,
0.952941176470588);
#1431=COLOUR_RGB('Opaque(237,206,195)',0.929411764705882,0.807843137254902,
0.764705882352941);
#1432=COLOUR_RGB('Opaque(229,202,158)',0.898039215686275,0.792156862745098,
0.619607843137255);
#1433=COLOUR_RGB('Opaque(245,245,246)',0.96078431372549,0.96078431372549,
0.964705882352941);
#1434=COLOUR_RGB('Opaque(0,192,0)',0.,0.752941176470588,0.);
#1435=COLOUR_RGB('Opaque(64,64,64)',0.250980392156863,0.250980392156863,
0.250980392156863);
#1436=COLOUR_RGB('Opaque(229,229,229)',0.898039215686275,0.898039215686275,
0.898039215686275);
#1437=COLOUR_RGB('Opaque(137,89,86)',0.537254901960784,0.349019607843137,
0.337254901960784);
#1438=COLOUR_RGB('Opaque(165,158,150)',0.647058823529412,0.619607843137255,
0.588235294117647);
#1439=COLOUR_RGB('Opaque(192,192,192)',0.752941176470588,0.752941176470588,
0.752941176470588);
#1440=COLOUR_RGB('Opaque(219,219,219)',0.858823529411765,0.858823529411765,
0.858823529411765);
#1441=COLOUR_RGB('Opaque(202,209,238)',0.792156862745098,0.819607843137255,
0.933333333333333);
#1442=COLOUR_RGB('Steel - Satin',0.627450980392157,0.627450980392157,0.627450980392157);
ENDSEC;
END-ISO-10303-21;
