ISO-10303-21;
HEADER;
/* Generated by software containing ST-Developer
 * from STEP Tools, Inc. (www.steptools.com) 
 */

FILE_DESCRIPTION(
/* description */ (''),
/* implementation_level */ '2;1');

FILE_NAME(
/* name */ 'Speaker Holder.step',
/* time_stamp */ '2025-07-31T17:27:22-05:00',
/* author */ (''),
/* organization */ (''),
/* preprocessor_version */ 'ST-DEVELOPER v20.1',
/* originating_system */ 'Autodesk Translation Framework v14.10.0.0',
/* authorisation */ '');

FILE_SCHEMA (('AUTOMOTIVE_DESIGN { 1 0 10303 214 3 1 1 }'));
ENDSEC;

DATA;
#10=MECHANICAL_DESIGN_GEOMETRIC_PRESENTATION_REPRESENTATION('',(#13),#371);
#11=SHAPE_REPRESENTATION_RELATIONSHIP('SRR','None',#377,#12);
#12=ADVANCED_BREP_SHAPE_REPRESENTATION('',(#14),#370);
#13=STYLED_ITEM('',(#404),#14);
#14=MANIFOLD_SOLID_BREP('Body28',#231);
#15=CIRCLE('',#240,25.);
#16=CIRCLE('',#241,25.);
#17=CYLINDRICAL_SURFACE('',#239,25.);
#18=FACE_OUTER_BOUND('',#30,.T.);
#19=FACE_OUTER_BOUND('',#31,.T.);
#20=FACE_OUTER_BOUND('',#32,.T.);
#21=FACE_OUTER_BOUND('',#33,.T.);
#22=FACE_OUTER_BOUND('',#34,.T.);
#23=FACE_OUTER_BOUND('',#35,.T.);
#24=FACE_OUTER_BOUND('',#36,.T.);
#25=FACE_OUTER_BOUND('',#37,.T.);
#26=FACE_OUTER_BOUND('',#38,.T.);
#27=FACE_OUTER_BOUND('',#39,.T.);
#28=FACE_OUTER_BOUND('',#40,.T.);
#29=FACE_OUTER_BOUND('',#41,.T.);
#30=EDGE_LOOP('',(#148,#149,#150,#151));
#31=EDGE_LOOP('',(#152,#153,#154,#155));
#32=EDGE_LOOP('',(#156,#157,#158,#159));
#33=EDGE_LOOP('',(#160,#161,#162,#163));
#34=EDGE_LOOP('',(#164,#165,#166,#167));
#35=EDGE_LOOP('',(#168,#169,#170,#171));
#36=EDGE_LOOP('',(#172,#173,#174,#175));
#37=EDGE_LOOP('',(#176,#177,#178,#179));
#38=EDGE_LOOP('',(#180,#181,#182,#183));
#39=EDGE_LOOP('',(#184,#185,#186,#187));
#40=EDGE_LOOP('',(#188,#189,#190,#191,#192,#193,#194,#195,#196,#197));
#41=EDGE_LOOP('',(#198,#199,#200,#201,#202,#203,#204,#205,#206,#207));
#42=LINE('',#309,#70);
#43=LINE('',#311,#71);
#44=LINE('',#313,#72);
#45=LINE('',#314,#73);
#46=LINE('',#317,#74);
#47=LINE('',#319,#75);
#48=LINE('',#320,#76);
#49=LINE('',#323,#77);
#50=LINE('',#325,#78);
#51=LINE('',#326,#79);
#52=LINE('',#329,#80);
#53=LINE('',#331,#81);
#54=LINE('',#332,#82);
#55=LINE('',#335,#83);
#56=LINE('',#337,#84);
#57=LINE('',#338,#85);
#58=LINE('',#341,#86);
#59=LINE('',#343,#87);
#60=LINE('',#344,#88);
#61=LINE('',#350,#89);
#62=LINE('',#353,#90);
#63=LINE('',#355,#91);
#64=LINE('',#356,#92);
#65=LINE('',#359,#93);
#66=LINE('',#361,#94);
#67=LINE('',#362,#95);
#68=LINE('',#364,#96);
#69=LINE('',#365,#97);
#70=VECTOR('',#251,10.);
#71=VECTOR('',#252,10.);
#72=VECTOR('',#253,10.);
#73=VECTOR('',#254,10.);
#74=VECTOR('',#257,10.);
#75=VECTOR('',#258,10.);
#76=VECTOR('',#259,10.);
#77=VECTOR('',#262,10.);
#78=VECTOR('',#263,10.);
#79=VECTOR('',#264,10.);
#80=VECTOR('',#267,10.);
#81=VECTOR('',#268,10.);
#82=VECTOR('',#269,10.);
#83=VECTOR('',#272,10.);
#84=VECTOR('',#273,10.);
#85=VECTOR('',#274,10.);
#86=VECTOR('',#277,10.);
#87=VECTOR('',#278,10.);
#88=VECTOR('',#279,10.);
#89=VECTOR('',#286,10.);
#90=VECTOR('',#289,10.);
#91=VECTOR('',#290,10.);
#92=VECTOR('',#291,10.);
#93=VECTOR('',#294,10.);
#94=VECTOR('',#295,10.);
#95=VECTOR('',#296,10.);
#96=VECTOR('',#299,10.);
#97=VECTOR('',#300,10.);
#98=VERTEX_POINT('',#307);
#99=VERTEX_POINT('',#308);
#100=VERTEX_POINT('',#310);
#101=VERTEX_POINT('',#312);
#102=VERTEX_POINT('',#316);
#103=VERTEX_POINT('',#318);
#104=VERTEX_POINT('',#322);
#105=VERTEX_POINT('',#324);
#106=VERTEX_POINT('',#328);
#107=VERTEX_POINT('',#330);
#108=VERTEX_POINT('',#334);
#109=VERTEX_POINT('',#336);
#110=VERTEX_POINT('',#340);
#111=VERTEX_POINT('',#342);
#112=VERTEX_POINT('',#346);
#113=VERTEX_POINT('',#348);
#114=VERTEX_POINT('',#352);
#115=VERTEX_POINT('',#354);
#116=VERTEX_POINT('',#358);
#117=VERTEX_POINT('',#360);
#118=EDGE_CURVE('',#98,#99,#42,.T.);
#119=EDGE_CURVE('',#98,#100,#43,.T.);
#120=EDGE_CURVE('',#101,#100,#44,.T.);
#121=EDGE_CURVE('',#99,#101,#45,.T.);
#122=EDGE_CURVE('',#99,#102,#46,.T.);
#123=EDGE_CURVE('',#103,#101,#47,.T.);
#124=EDGE_CURVE('',#102,#103,#48,.T.);
#125=EDGE_CURVE('',#102,#104,#49,.T.);
#126=EDGE_CURVE('',#105,#103,#50,.T.);
#127=EDGE_CURVE('',#104,#105,#51,.T.);
#128=EDGE_CURVE('',#106,#104,#52,.T.);
#129=EDGE_CURVE('',#107,#105,#53,.T.);
#130=EDGE_CURVE('',#106,#107,#54,.T.);
#131=EDGE_CURVE('',#108,#106,#55,.T.);
#132=EDGE_CURVE('',#109,#107,#56,.T.);
#133=EDGE_CURVE('',#108,#109,#57,.T.);
#134=EDGE_CURVE('',#110,#108,#58,.T.);
#135=EDGE_CURVE('',#111,#109,#59,.T.);
#136=EDGE_CURVE('',#110,#111,#60,.T.);
#137=EDGE_CURVE('',#112,#110,#15,.T.);
#138=EDGE_CURVE('',#113,#111,#16,.T.);
#139=EDGE_CURVE('',#112,#113,#61,.T.);
#140=EDGE_CURVE('',#114,#112,#62,.T.);
#141=EDGE_CURVE('',#115,#113,#63,.T.);
#142=EDGE_CURVE('',#114,#115,#64,.T.);
#143=EDGE_CURVE('',#116,#114,#65,.T.);
#144=EDGE_CURVE('',#117,#115,#66,.T.);
#145=EDGE_CURVE('',#116,#117,#67,.T.);
#146=EDGE_CURVE('',#98,#116,#68,.T.);
#147=EDGE_CURVE('',#100,#117,#69,.T.);
#148=ORIENTED_EDGE('',*,*,#118,.F.);
#149=ORIENTED_EDGE('',*,*,#119,.T.);
#150=ORIENTED_EDGE('',*,*,#120,.F.);
#151=ORIENTED_EDGE('',*,*,#121,.F.);
#152=ORIENTED_EDGE('',*,*,#122,.F.);
#153=ORIENTED_EDGE('',*,*,#121,.T.);
#154=ORIENTED_EDGE('',*,*,#123,.F.);
#155=ORIENTED_EDGE('',*,*,#124,.F.);
#156=ORIENTED_EDGE('',*,*,#125,.F.);
#157=ORIENTED_EDGE('',*,*,#124,.T.);
#158=ORIENTED_EDGE('',*,*,#126,.F.);
#159=ORIENTED_EDGE('',*,*,#127,.F.);
#160=ORIENTED_EDGE('',*,*,#128,.T.);
#161=ORIENTED_EDGE('',*,*,#127,.T.);
#162=ORIENTED_EDGE('',*,*,#129,.F.);
#163=ORIENTED_EDGE('',*,*,#130,.F.);
#164=ORIENTED_EDGE('',*,*,#131,.T.);
#165=ORIENTED_EDGE('',*,*,#130,.T.);
#166=ORIENTED_EDGE('',*,*,#132,.F.);
#167=ORIENTED_EDGE('',*,*,#133,.F.);
#168=ORIENTED_EDGE('',*,*,#134,.T.);
#169=ORIENTED_EDGE('',*,*,#133,.T.);
#170=ORIENTED_EDGE('',*,*,#135,.F.);
#171=ORIENTED_EDGE('',*,*,#136,.F.);
#172=ORIENTED_EDGE('',*,*,#137,.T.);
#173=ORIENTED_EDGE('',*,*,#136,.T.);
#174=ORIENTED_EDGE('',*,*,#138,.F.);
#175=ORIENTED_EDGE('',*,*,#139,.F.);
#176=ORIENTED_EDGE('',*,*,#140,.T.);
#177=ORIENTED_EDGE('',*,*,#139,.T.);
#178=ORIENTED_EDGE('',*,*,#141,.F.);
#179=ORIENTED_EDGE('',*,*,#142,.F.);
#180=ORIENTED_EDGE('',*,*,#143,.T.);
#181=ORIENTED_EDGE('',*,*,#142,.T.);
#182=ORIENTED_EDGE('',*,*,#144,.F.);
#183=ORIENTED_EDGE('',*,*,#145,.F.);
#184=ORIENTED_EDGE('',*,*,#146,.T.);
#185=ORIENTED_EDGE('',*,*,#145,.T.);
#186=ORIENTED_EDGE('',*,*,#147,.F.);
#187=ORIENTED_EDGE('',*,*,#119,.F.);
#188=ORIENTED_EDGE('',*,*,#146,.F.);
#189=ORIENTED_EDGE('',*,*,#118,.T.);
#190=ORIENTED_EDGE('',*,*,#122,.T.);
#191=ORIENTED_EDGE('',*,*,#125,.T.);
#192=ORIENTED_EDGE('',*,*,#128,.F.);
#193=ORIENTED_EDGE('',*,*,#131,.F.);
#194=ORIENTED_EDGE('',*,*,#134,.F.);
#195=ORIENTED_EDGE('',*,*,#137,.F.);
#196=ORIENTED_EDGE('',*,*,#140,.F.);
#197=ORIENTED_EDGE('',*,*,#143,.F.);
#198=ORIENTED_EDGE('',*,*,#147,.T.);
#199=ORIENTED_EDGE('',*,*,#144,.T.);
#200=ORIENTED_EDGE('',*,*,#141,.T.);
#201=ORIENTED_EDGE('',*,*,#138,.T.);
#202=ORIENTED_EDGE('',*,*,#135,.T.);
#203=ORIENTED_EDGE('',*,*,#132,.T.);
#204=ORIENTED_EDGE('',*,*,#129,.T.);
#205=ORIENTED_EDGE('',*,*,#126,.T.);
#206=ORIENTED_EDGE('',*,*,#123,.T.);
#207=ORIENTED_EDGE('',*,*,#120,.T.);
#208=PLANE('',#233);
#209=PLANE('',#234);
#210=PLANE('',#235);
#211=PLANE('',#236);
#212=PLANE('',#237);
#213=PLANE('',#238);
#214=PLANE('',#242);
#215=PLANE('',#243);
#216=PLANE('',#244);
#217=PLANE('',#245);
#218=PLANE('',#246);
#219=ADVANCED_FACE('',(#18),#208,.T.);
#220=ADVANCED_FACE('',(#19),#209,.T.);
#221=ADVANCED_FACE('',(#20),#210,.T.);
#222=ADVANCED_FACE('',(#21),#211,.T.);
#223=ADVANCED_FACE('',(#22),#212,.T.);
#224=ADVANCED_FACE('',(#23),#213,.T.);
#225=ADVANCED_FACE('',(#24),#17,.F.);
#226=ADVANCED_FACE('',(#25),#214,.T.);
#227=ADVANCED_FACE('',(#26),#215,.T.);
#228=ADVANCED_FACE('',(#27),#216,.T.);
#229=ADVANCED_FACE('',(#28),#217,.T.);
#230=ADVANCED_FACE('',(#29),#218,.F.);
#231=CLOSED_SHELL('',(#219,#220,#221,#222,#223,#224,#225,#226,#227,#228,
#229,#230));
#232=AXIS2_PLACEMENT_3D('',#305,#247,#248);
#233=AXIS2_PLACEMENT_3D('',#306,#249,#250);
#234=AXIS2_PLACEMENT_3D('',#315,#255,#256);
#235=AXIS2_PLACEMENT_3D('',#321,#260,#261);
#236=AXIS2_PLACEMENT_3D('',#327,#265,#266);
#237=AXIS2_PLACEMENT_3D('',#333,#270,#271);
#238=AXIS2_PLACEMENT_3D('',#339,#275,#276);
#239=AXIS2_PLACEMENT_3D('',#345,#280,#281);
#240=AXIS2_PLACEMENT_3D('',#347,#282,#283);
#241=AXIS2_PLACEMENT_3D('',#349,#284,#285);
#242=AXIS2_PLACEMENT_3D('',#351,#287,#288);
#243=AXIS2_PLACEMENT_3D('',#357,#292,#293);
#244=AXIS2_PLACEMENT_3D('',#363,#297,#298);
#245=AXIS2_PLACEMENT_3D('',#366,#301,#302);
#246=AXIS2_PLACEMENT_3D('',#367,#303,#304);
#247=DIRECTION('axis',(0.,0.,1.));
#248=DIRECTION('refdir',(1.,0.,0.));
#249=DIRECTION('center_axis',(0.,1.,0.));
#250=DIRECTION('ref_axis',(4.73232564246472E-15,0.,-1.));
#251=DIRECTION('',(-4.73232564246472E-15,0.,1.));
#252=DIRECTION('',(-1.,0.,-4.77395900588817E-15));
#253=DIRECTION('',(4.73232564246472E-15,0.,-1.));
#254=DIRECTION('',(-1.,0.,-4.77395900588817E-15));
#255=DIRECTION('center_axis',(4.77395900588817E-15,0.,-1.));
#256=DIRECTION('ref_axis',(0.,-1.,0.));
#257=DIRECTION('',(0.,1.,0.));
#258=DIRECTION('',(0.,-1.,0.));
#259=DIRECTION('',(-1.,0.,-4.77395900588817E-15));
#260=DIRECTION('center_axis',(0.,-1.,0.));
#261=DIRECTION('ref_axis',(-4.73232564246472E-15,0.,1.));
#262=DIRECTION('',(4.73232564246472E-15,0.,-1.));
#263=DIRECTION('',(-4.73232564246472E-15,0.,1.));
#264=DIRECTION('',(-1.,0.,-4.77395900588817E-15));
#265=DIRECTION('center_axis',(4.77395900588817E-15,-4.93432455388958E-17,
-1.));
#266=DIRECTION('ref_axis',(-2.3350830614615E-31,-1.,4.93432455388958E-17));
#267=DIRECTION('',(-2.3350830614615E-31,-1.,4.93432455388958E-17));
#268=DIRECTION('',(-2.3350830614615E-31,-1.,4.93432455388958E-17));
#269=DIRECTION('',(-1.,0.,-4.77395900588817E-15));
#270=DIRECTION('center_axis',(0.,1.,0.));
#271=DIRECTION('ref_axis',(4.73232564246472E-15,0.,-1.));
#272=DIRECTION('',(4.73232564246472E-15,0.,-1.));
#273=DIRECTION('',(4.73232564246472E-15,0.,-1.));
#274=DIRECTION('',(-1.,0.,-4.77395900588817E-15));
#275=DIRECTION('center_axis',(-4.77395900588817E-15,0.,1.));
#276=DIRECTION('ref_axis',(0.,1.,0.));
#277=DIRECTION('',(0.,1.,0.));
#278=DIRECTION('',(0.,1.,0.));
#279=DIRECTION('',(-1.,0.,-4.77395900588817E-15));
#280=DIRECTION('center_axis',(-1.,0.,-4.77395900588817E-15));
#281=DIRECTION('ref_axis',(0.,1.,0.));
#282=DIRECTION('center_axis',(1.,0.,4.73232564246472E-15));
#283=DIRECTION('ref_axis',(0.,1.,0.));
#284=DIRECTION('center_axis',(1.,0.,4.73232564246472E-15));
#285=DIRECTION('ref_axis',(0.,1.,0.));
#286=DIRECTION('',(-1.,0.,-4.77395900588817E-15));
#287=DIRECTION('center_axis',(-4.77395900588817E-15,0.,1.));
#288=DIRECTION('ref_axis',(0.,1.,0.));
#289=DIRECTION('',(0.,1.,0.));
#290=DIRECTION('',(0.,1.,0.));
#291=DIRECTION('',(-1.,0.,-4.77395900588817E-15));
#292=DIRECTION('center_axis',(0.,-1.,0.));
#293=DIRECTION('ref_axis',(-4.73232564246472E-15,0.,1.));
#294=DIRECTION('',(-4.73232564246472E-15,0.,1.));
#295=DIRECTION('',(-4.73232564246472E-15,0.,1.));
#296=DIRECTION('',(-1.,0.,-4.77395900588817E-15));
#297=DIRECTION('center_axis',(4.77395900588817E-15,-4.93432455388958E-17,
-1.));
#298=DIRECTION('ref_axis',(-2.3350830614615E-31,-1.,4.93432455388958E-17));
#299=DIRECTION('',(-2.3350830614615E-31,-1.,4.93432455388958E-17));
#300=DIRECTION('',(-2.3350830614615E-31,-1.,4.93432455388958E-17));
#301=DIRECTION('center_axis',(1.,0.,4.73232564246472E-15));
#302=DIRECTION('ref_axis',(0.,1.,0.));
#303=DIRECTION('center_axis',(1.,0.,4.73232564246472E-15));
#304=DIRECTION('ref_axis',(0.,1.,0.));
#305=CARTESIAN_POINT('',(0.,0.,0.));
#306=CARTESIAN_POINT('Origin',(54.3489739082928,50.,45.0000000000002));
#307=CARTESIAN_POINT('',(54.348973908293,50.,10.0000000000002));
#308=CARTESIAN_POINT('',(54.3489739082928,50.,45.0000000000002));
#309=CARTESIAN_POINT('',(54.348973908293,50.,10.0000000000002));
#310=CARTESIAN_POINT('',(34.348973908293,50.,10.0000000000002));
#311=CARTESIAN_POINT('',(54.348973908293,50.,10.0000000000002));
#312=CARTESIAN_POINT('',(34.3489739082928,50.,45.0000000000001));
#313=CARTESIAN_POINT('',(34.348973908293,50.,10.0000000000002));
#314=CARTESIAN_POINT('',(54.3489739082928,50.,45.0000000000002));
#315=CARTESIAN_POINT('Origin',(54.3489739082928,110.,45.0000000000002));
#316=CARTESIAN_POINT('',(54.3489739082928,110.,45.0000000000002));
#317=CARTESIAN_POINT('',(54.3489739082928,50.,45.0000000000002));
#318=CARTESIAN_POINT('',(34.3489739082928,110.,45.0000000000001));
#319=CARTESIAN_POINT('',(34.3489739082928,50.,45.0000000000001));
#320=CARTESIAN_POINT('',(54.3489739082928,110.,45.0000000000002));
#321=CARTESIAN_POINT('Origin',(54.348973908293,110.,10.0000000000002));
#322=CARTESIAN_POINT('',(54.348973908293,110.,10.0000000000002));
#323=CARTESIAN_POINT('',(54.3489739082928,110.,45.0000000000002));
#324=CARTESIAN_POINT('',(34.348973908293,110.,10.0000000000002));
#325=CARTESIAN_POINT('',(34.3489739082928,110.,45.0000000000001));
#326=CARTESIAN_POINT('',(54.348973908293,110.,10.0000000000002));
#327=CARTESIAN_POINT('Origin',(54.348973908293,125.,10.0000000000002));
#328=CARTESIAN_POINT('',(54.348973908293,125.,10.0000000000002));
#329=CARTESIAN_POINT('',(54.348973908293,125.,10.0000000000002));
#330=CARTESIAN_POINT('',(34.348973908293,125.,10.0000000000001));
#331=CARTESIAN_POINT('',(34.348973908293,125.,10.0000000000001));
#332=CARTESIAN_POINT('',(54.348973908293,125.,10.0000000000002));
#333=CARTESIAN_POINT('Origin',(54.3489739082926,125.,80.0000000000002));
#334=CARTESIAN_POINT('',(54.3489739082926,125.,80.0000000000002));
#335=CARTESIAN_POINT('',(54.3489739082926,125.,80.0000000000002));
#336=CARTESIAN_POINT('',(34.3489739082926,125.,80.0000000000001));
#337=CARTESIAN_POINT('',(34.3489739082926,125.,80.0000000000001));
#338=CARTESIAN_POINT('',(54.3489739082926,125.,80.0000000000002));
#339=CARTESIAN_POINT('Origin',(54.3489739082926,105.,80.0000000000002));
#340=CARTESIAN_POINT('',(54.3489739082926,105.,80.0000000000002));
#341=CARTESIAN_POINT('',(54.3489739082926,35.,80.0000000000002));
#342=CARTESIAN_POINT('',(34.3489739082926,105.,80.0000000000001));
#343=CARTESIAN_POINT('',(34.3489739082926,35.,80.0000000000001));
#344=CARTESIAN_POINT('',(54.3489739082926,105.,80.0000000000002));
#345=CARTESIAN_POINT('Origin',(54.3489739082926,80.,80.0000000000002));
#346=CARTESIAN_POINT('',(54.3489739082926,55.,80.0000000000002));
#347=CARTESIAN_POINT('Origin',(54.3489739082926,80.,80.0000000000002));
#348=CARTESIAN_POINT('',(34.3489739082926,55.,80.0000000000001));
#349=CARTESIAN_POINT('Origin',(34.3489739082926,80.,80.0000000000001));
#350=CARTESIAN_POINT('',(54.3489739082926,55.,80.0000000000002));
#351=CARTESIAN_POINT('Origin',(54.3489739082926,35.,80.0000000000002));
#352=CARTESIAN_POINT('',(54.3489739082926,35.,80.0000000000002));
#353=CARTESIAN_POINT('',(54.3489739082926,35.,80.0000000000002));
#354=CARTESIAN_POINT('',(34.3489739082926,35.,80.0000000000001));
#355=CARTESIAN_POINT('',(34.3489739082926,35.,80.0000000000001));
#356=CARTESIAN_POINT('',(54.3489739082926,35.,80.0000000000002));
#357=CARTESIAN_POINT('Origin',(54.348973908293,35.,10.0000000000002));
#358=CARTESIAN_POINT('',(54.348973908293,35.,10.0000000000002));
#359=CARTESIAN_POINT('',(54.348973908293,35.,10.0000000000002));
#360=CARTESIAN_POINT('',(34.348973908293,35.,10.0000000000001));
#361=CARTESIAN_POINT('',(34.348973908293,35.,10.0000000000001));
#362=CARTESIAN_POINT('',(54.348973908293,35.,10.0000000000002));
#363=CARTESIAN_POINT('Origin',(54.348973908293,50.,10.0000000000002));
#364=CARTESIAN_POINT('',(54.348973908293,125.,10.0000000000002));
#365=CARTESIAN_POINT('',(34.348973908293,125.,10.0000000000001));
#366=CARTESIAN_POINT('Origin',(54.3489739082928,80.,45.0000000000002));
#367=CARTESIAN_POINT('Origin',(34.3489739082928,80.,45.0000000000001));
#368=UNCERTAINTY_MEASURE_WITH_UNIT(LENGTH_MEASURE(0.01),#372,
'DISTANCE_ACCURACY_VALUE',
'Maximum model space distance between geometric entities at asserted c
onnectivities');
#369=UNCERTAINTY_MEASURE_WITH_UNIT(LENGTH_MEASURE(0.01),#372,
'DISTANCE_ACCURACY_VALUE',
'Maximum model space distance between geometric entities at asserted c
onnectivities');
#370=(
GEOMETRIC_REPRESENTATION_CONTEXT(3)
GLOBAL_UNCERTAINTY_ASSIGNED_CONTEXT((#368))
GLOBAL_UNIT_ASSIGNED_CONTEXT((#372,#373,#374))
REPRESENTATION_CONTEXT('','3D')
);
#371=(
GEOMETRIC_REPRESENTATION_CONTEXT(3)
GLOBAL_UNCERTAINTY_ASSIGNED_CONTEXT((#369))
GLOBAL_UNIT_ASSIGNED_CONTEXT((#372,#373,#374))
REPRESENTATION_CONTEXT('','3D')
);
#372=(
LENGTH_UNIT()
NAMED_UNIT(*)
SI_UNIT(.MILLI.,.METRE.)
);
#373=(
NAMED_UNIT(*)
PLANE_ANGLE_UNIT()
SI_UNIT($,.RADIAN.)
);
#374=(
NAMED_UNIT(*)
SI_UNIT($,.STERADIAN.)
SOLID_ANGLE_UNIT()
);
#375=SHAPE_DEFINITION_REPRESENTATION(#376,#377);
#376=PRODUCT_DEFINITION_SHAPE('',$,#379);
#377=SHAPE_REPRESENTATION('',(#232),#370);
#378=PRODUCT_DEFINITION_CONTEXT('part definition',#383,'design');
#379=PRODUCT_DEFINITION('Jukebox','Jukebox v17',#380,#378);
#380=PRODUCT_DEFINITION_FORMATION('',$,#385);
#381=PRODUCT_RELATED_PRODUCT_CATEGORY('Jukebox v17','Jukebox v17',(#385));
#382=APPLICATION_PROTOCOL_DEFINITION('international standard',
'automotive_design',2009,#383);
#383=APPLICATION_CONTEXT(
'Core Data for Automotive Mechanical Design Process');
#384=PRODUCT_CONTEXT('part definition',#383,'mechanical');
#385=PRODUCT('Jukebox','Jukebox v17',$,(#384));
#386=PRESENTATION_STYLE_ASSIGNMENT((#405));
#387=PRESENTATION_STYLE_ASSIGNMENT((#406));
#388=PRESENTATION_STYLE_ASSIGNMENT((#407));
#389=PRESENTATION_STYLE_ASSIGNMENT((#408));
#390=PRESENTATION_STYLE_ASSIGNMENT((#409));
#391=PRESENTATION_STYLE_ASSIGNMENT((#410));
#392=PRESENTATION_STYLE_ASSIGNMENT((#411));
#393=PRESENTATION_STYLE_ASSIGNMENT((#412));
#394=PRESENTATION_STYLE_ASSIGNMENT((#413));
#395=PRESENTATION_STYLE_ASSIGNMENT((#414));
#396=PRESENTATION_STYLE_ASSIGNMENT((#415));
#397=PRESENTATION_STYLE_ASSIGNMENT((#416));
#398=PRESENTATION_STYLE_ASSIGNMENT((#417));
#399=PRESENTATION_STYLE_ASSIGNMENT((#418));
#400=PRESENTATION_STYLE_ASSIGNMENT((#419));
#401=PRESENTATION_STYLE_ASSIGNMENT((#420));
#402=PRESENTATION_STYLE_ASSIGNMENT((#421));
#403=PRESENTATION_STYLE_ASSIGNMENT((#422));
#404=PRESENTATION_STYLE_ASSIGNMENT((#423));
#405=SURFACE_STYLE_USAGE(.BOTH.,#424);
#406=SURFACE_STYLE_USAGE(.BOTH.,#425);
#407=SURFACE_STYLE_USAGE(.BOTH.,#426);
#408=SURFACE_STYLE_USAGE(.BOTH.,#427);
#409=SURFACE_STYLE_USAGE(.BOTH.,#428);
#410=SURFACE_STYLE_USAGE(.BOTH.,#429);
#411=SURFACE_STYLE_USAGE(.BOTH.,#430);
#412=SURFACE_STYLE_USAGE(.BOTH.,#431);
#413=SURFACE_STYLE_USAGE(.BOTH.,#432);
#414=SURFACE_STYLE_USAGE(.BOTH.,#433);
#415=SURFACE_STYLE_USAGE(.BOTH.,#434);
#416=SURFACE_STYLE_USAGE(.BOTH.,#435);
#417=SURFACE_STYLE_USAGE(.BOTH.,#436);
#418=SURFACE_STYLE_USAGE(.BOTH.,#437);
#419=SURFACE_STYLE_USAGE(.BOTH.,#438);
#420=SURFACE_STYLE_USAGE(.BOTH.,#439);
#421=SURFACE_STYLE_USAGE(.BOTH.,#440);
#422=SURFACE_STYLE_USAGE(.BOTH.,#441);
#423=SURFACE_STYLE_USAGE(.BOTH.,#442);
#424=SURFACE_SIDE_STYLE('',(#443));
#425=SURFACE_SIDE_STYLE('',(#444));
#426=SURFACE_SIDE_STYLE('',(#445));
#427=SURFACE_SIDE_STYLE('',(#446));
#428=SURFACE_SIDE_STYLE('',(#447));
#429=SURFACE_SIDE_STYLE('',(#448));
#430=SURFACE_SIDE_STYLE('',(#449));
#431=SURFACE_SIDE_STYLE('',(#450));
#432=SURFACE_SIDE_STYLE('',(#451));
#433=SURFACE_SIDE_STYLE('',(#452));
#434=SURFACE_SIDE_STYLE('',(#453));
#435=SURFACE_SIDE_STYLE('',(#454));
#436=SURFACE_SIDE_STYLE('',(#455));
#437=SURFACE_SIDE_STYLE('',(#456));
#438=SURFACE_SIDE_STYLE('',(#457));
#439=SURFACE_SIDE_STYLE('',(#458));
#440=SURFACE_SIDE_STYLE('',(#459));
#441=SURFACE_SIDE_STYLE('',(#460));
#442=SURFACE_SIDE_STYLE('',(#461));
#443=SURFACE_STYLE_FILL_AREA(#462);
#444=SURFACE_STYLE_FILL_AREA(#463);
#445=SURFACE_STYLE_FILL_AREA(#464);
#446=SURFACE_STYLE_FILL_AREA(#465);
#447=SURFACE_STYLE_FILL_AREA(#466);
#448=SURFACE_STYLE_FILL_AREA(#467);
#449=SURFACE_STYLE_FILL_AREA(#468);
#450=SURFACE_STYLE_FILL_AREA(#469);
#451=SURFACE_STYLE_FILL_AREA(#470);
#452=SURFACE_STYLE_FILL_AREA(#471);
#453=SURFACE_STYLE_FILL_AREA(#472);
#454=SURFACE_STYLE_FILL_AREA(#473);
#455=SURFACE_STYLE_FILL_AREA(#474);
#456=SURFACE_STYLE_FILL_AREA(#475);
#457=SURFACE_STYLE_FILL_AREA(#476);
#458=SURFACE_STYLE_FILL_AREA(#477);
#459=SURFACE_STYLE_FILL_AREA(#478);
#460=SURFACE_STYLE_FILL_AREA(#479);
#461=SURFACE_STYLE_FILL_AREA(#480);
#462=FILL_AREA_STYLE('Opaque(203,203,203)',(#481));
#463=FILL_AREA_STYLE('Opaque(25,25,25)',(#482));
#464=FILL_AREA_STYLE('Opaque(63,63,63)',(#483));
#465=FILL_AREA_STYLE('Opaque(237,237,237)',(#484));
#466=FILL_AREA_STYLE('Opaque(160,160,160)',(#485));
#467=FILL_AREA_STYLE('Opaque(89,149,218)',(#486));
#468=FILL_AREA_STYLE('Opaque(246,246,243)',(#487));
#469=FILL_AREA_STYLE('Opaque(237,206,195)',(#488));
#470=FILL_AREA_STYLE('Opaque(229,202,158)',(#489));
#471=FILL_AREA_STYLE('Opaque(245,245,246)',(#490));
#472=FILL_AREA_STYLE('Opaque(0,192,0)',(#491));
#473=FILL_AREA_STYLE('Opaque(64,64,64)',(#492));
#474=FILL_AREA_STYLE('Opaque(229,229,229)',(#493));
#475=FILL_AREA_STYLE('Opaque(137,89,86)',(#494));
#476=FILL_AREA_STYLE('Opaque(165,158,150)',(#495));
#477=FILL_AREA_STYLE('Opaque(192,192,192)',(#496));
#478=FILL_AREA_STYLE('Opaque(219,219,219)',(#497));
#479=FILL_AREA_STYLE('Opaque(202,209,238)',(#498));
#480=FILL_AREA_STYLE('Steel - Satin',(#499));
#481=FILL_AREA_STYLE_COLOUR('Opaque(203,203,203)',#500);
#482=FILL_AREA_STYLE_COLOUR('Opaque(25,25,25)',#501);
#483=FILL_AREA_STYLE_COLOUR('Opaque(63,63,63)',#502);
#484=FILL_AREA_STYLE_COLOUR('Opaque(237,237,237)',#503);
#485=FILL_AREA_STYLE_COLOUR('Opaque(160,160,160)',#504);
#486=FILL_AREA_STYLE_COLOUR('Opaque(89,149,218)',#505);
#487=FILL_AREA_STYLE_COLOUR('Opaque(246,246,243)',#506);
#488=FILL_AREA_STYLE_COLOUR('Opaque(237,206,195)',#507);
#489=FILL_AREA_STYLE_COLOUR('Opaque(229,202,158)',#508);
#490=FILL_AREA_STYLE_COLOUR('Opaque(245,245,246)',#509);
#491=FILL_AREA_STYLE_COLOUR('Opaque(0,192,0)',#510);
#492=FILL_AREA_STYLE_COLOUR('Opaque(64,64,64)',#511);
#493=FILL_AREA_STYLE_COLOUR('Opaque(229,229,229)',#512);
#494=FILL_AREA_STYLE_COLOUR('Opaque(137,89,86)',#513);
#495=FILL_AREA_STYLE_COLOUR('Opaque(165,158,150)',#514);
#496=FILL_AREA_STYLE_COLOUR('Opaque(192,192,192)',#515);
#497=FILL_AREA_STYLE_COLOUR('Opaque(219,219,219)',#516);
#498=FILL_AREA_STYLE_COLOUR('Opaque(202,209,238)',#517);
#499=FILL_AREA_STYLE_COLOUR('Steel - Satin',#518);
#500=COLOUR_RGB('Opaque(203,203,203)',0.796078431372549,0.796078431372549,
0.796078431372549);
#501=COLOUR_RGB('Opaque(25,25,25)',0.0980392156862745,0.0980392156862745,
0.0980392156862745);
#502=COLOUR_RGB('Opaque(63,63,63)',0.250980392156863,0.250980392156863,
0.250980392156863);
#503=COLOUR_RGB('Opaque(237,237,237)',0.929411764705882,0.929411764705882,
0.929411764705882);
#504=COLOUR_RGB('Opaque(160,160,160)',0.627450980392157,0.627450980392157,
0.627450980392157);
#505=COLOUR_RGB('Opaque(89,149,218)',0.349019607843137,0.584313725490196,
0.854901960784314);
#506=COLOUR_RGB('Opaque(246,246,243)',0.964705882352941,0.964705882352941,
0.952941176470588);
#507=COLOUR_RGB('Opaque(237,206,195)',0.929411764705882,0.807843137254902,
0.764705882352941);
#508=COLOUR_RGB('Opaque(229,202,158)',0.898039215686275,0.792156862745098,
0.619607843137255);
#509=COLOUR_RGB('Opaque(245,245,246)',0.96078431372549,0.96078431372549,
0.964705882352941);
#510=COLOUR_RGB('Opaque(0,192,0)',0.,0.752941176470588,0.);
#511=COLOUR_RGB('Opaque(64,64,64)',0.250980392156863,0.250980392156863,
0.250980392156863);
#512=COLOUR_RGB('Opaque(229,229,229)',0.898039215686275,0.898039215686275,
0.898039215686275);
#513=COLOUR_RGB('Opaque(137,89,86)',0.537254901960784,0.349019607843137,
0.337254901960784);
#514=COLOUR_RGB('Opaque(165,158,150)',0.647058823529412,0.619607843137255,
0.588235294117647);
#515=COLOUR_RGB('Opaque(192,192,192)',0.752941176470588,0.752941176470588,
0.752941176470588);
#516=COLOUR_RGB('Opaque(219,219,219)',0.858823529411765,0.858823529411765,
0.858823529411765);
#517=COLOUR_RGB('Opaque(202,209,238)',0.792156862745098,0.819607843137255,
0.933333333333333);
#518=COLOUR_RGB('Steel - Satin',0.627450980392157,0.627450980392157,0.627450980392157);
ENDSEC;
END-ISO-10303-21;
